<svg version="1.0" xmlns="http://www.w3.org/2000/svg"
 width="512.000000pt" height="512.000000pt" viewBox="0 0 512.000000 512.000000"
 preserveAspectRatio="xMidYMid meet">

<g transform="translate(0.000000,512.000000) scale(0.100000,-0.100000)"
fill="#000000" stroke="none">
<path d="M345 4896 c-84 -21 -147 -57 -211 -121 -65 -65 -105 -136 -123 -223
-16 -76 -16 -3909 0 -3984 37 -172 175 -310 347 -347 75 -16 4328 -16 4404 0
170 36 311 178 347 347 16 76 16 3909 0 3984 -37 172 -176 311 -347 347 -81
17 -4349 14 -4417 -3z m4395 -306 c26 -13 47 -34 60 -60 20 -39 20 -55 20
-1970 0 -1915 0 -1931 -20 -1970 -13 -26 -34 -47 -60 -60 -39 -20 -54 -20
-2181 -20 l-2141 0 -40 22 c-24 14 -48 38 -59 60 -18 36 -19 92 -19 1970 1
1842 2 1935 19 1967 10 18 35 44 57 57 l39 24 2143 0 c2128 0 2143 0 2182 -20z"/>
<path d="M688 4289 c-23 -12 -46 -35 -58 -59 -20 -39 -20 -57 -20 -1070 0
-1013 0 -1031 20 -1070 13 -26 34 -47 60 -60 39 -20 55 -20 1870 -20 1815 0
1831 0 1870 20 26 13 47 34 60 60 20 39 20 57 20 1070 0 1013 0 1031 -20 1070
-13 26 -34 47 -60 60 -39 20 -54 20 -1872 20 -1805 -1 -1834 -1 -1870 -21z
m3522 -1129 l0 -850 -1650 0 -1650 0 0 850 0 850 1650 0 1650 0 0 -850z"/>
<path d="M2334 3696 l-34 -34 0 -502 0 -502 34 -34 c38 -38 40 -39 306 -34
151 2 179 11 205 66 19 40 19 77 1 113 -27 52 -60 64 -183 69 l-113 5 0 376
c0 207 -5 394 -10 416 -14 61 -58 95 -121 95 -45 0 -55 -4 -85 -34z"/>
<path d="M1486 3705 c-215 -59 -386 -253 -418 -474 -43 -291 156 -579 443
-641 83 -18 240 -8 311 19 69 27 153 87 191 138 64 86 10 203 -93 203 -39 0
-64 -13 -116 -60 -54 -50 -100 -63 -193 -58 -125 7 -207 63 -268 181 -23 45
-27 64 -27 137 0 73 4 92 27 137 37 72 77 114 139 148 44 24 68 30 140 33 84
4 91 3 164 -32 84 -40 122 -44 164 -19 63 37 79 136 30 188 -31 33 -127 82
-195 100 -72 18 -231 18 -299 0z"/>
<path d="M3185 3677 l-35 -35 0 -502 0 -502 34 -34 c30 -30 40 -34 84 -34 40
0 57 6 81 26 42 35 51 77 51 230 l0 132 113 4 c95 3 121 8 167 29 80 38 144
99 181 174 96 195 17 421 -179 513 -55 26 -64 27 -260 30 l-203 3 -34 -34z
m405 -232 c30 -16 56 -54 60 -90 5 -48 -2 -70 -39 -106 l-39 -39 -86 0 -86 0
0 125 0 125 80 0 c53 0 91 -5 110 -15z"/>
<path d="M688 1689 c-23 -12 -46 -35 -58 -59 -19 -37 -20 -58 -20 -370 0 -312
1 -333 20 -370 13 -26 34 -47 60 -60 37 -19 58 -20 470 -20 412 0 433 1 470
20 26 13 47 34 60 60 19 37 20 58 20 370 0 312 -1 333 -20 370 -13 26 -34 47
-60 60 -38 19 -58 20 -472 20 -411 -1 -435 -2 -470 -21z m722 -429 l0 -150
-250 0 -250 0 0 150 0 150 250 0 250 0 0 -150z"/>
<path d="M2088 1689 c-23 -12 -46 -35 -58 -59 -19 -37 -20 -58 -20 -370 0
-312 1 -333 20 -370 13 -26 34 -47 60 -60 37 -19 58 -20 470 -20 412 0 433 1
470 20 26 13 47 34 60 60 19 37 20 58 20 370 0 312 -1 333 -20 370 -13 26 -34
47 -60 60 -38 19 -58 20 -472 20 -411 -1 -435 -2 -470 -21z m722 -429 l0 -150
-250 0 -250 0 0 150 0 150 250 0 250 0 0 -150z"/>
<path d="M3488 1689 c-23 -12 -46 -35 -58 -59 -19 -37 -20 -58 -20 -370 0
-312 1 -333 20 -370 13 -26 34 -47 60 -60 37 -19 58 -20 470 -20 412 0 433 1
470 20 26 13 47 34 60 60 19 37 20 58 20 370 0 312 -1 333 -20 370 -13 26 -34
47 -60 60 -38 19 -58 20 -472 20 -411 -1 -435 -2 -470 -21z m722 -429 l0 -150
-250 0 -250 0 0 150 0 150 250 0 250 0 0 -150z"/>
</g>
</svg>
