<svg version="1.0" xmlns="http://www.w3.org/2000/svg"
 width="260.000000pt" height="263.000000pt" viewBox="0 0 260.000000 263.000000"
 preserveAspectRatio="xMidYMid meet">

<g transform="translate(0.000000,263.000000) scale(0.100000,-0.100000)"
fill="#000000" stroke="none">
<path d="M953 2443 c-16 -6 -18 -179 -3 -188 24 -15 40 17 40 81 l0 64 288 -2
287 -3 3 -65 c3 -72 13 -90 37 -70 11 9 15 32 15 82 0 117 28 108 -338 107
-174 0 -323 -3 -329 -6z"/>
<path d="M1093 2333 c-7 -2 -13 -13 -13 -24 0 -18 10 -19 196 -19 l195 0 -3
23 c-3 22 -5 22 -183 24 -99 1 -186 -1 -192 -4z"/>
<path d="M326 2219 l-26 -20 0 -900 c0 -886 0 -899 20 -919 20 -20 33 -20 980
-20 947 0 960 0 980 20 20 20 20 33 20 919 l0 900 -26 20 c-27 21 -31 21 -974
21 -943 0 -947 0 -974 -21z m1922 -921 l2 -888 -950 0 -950 0 0 883 c0 486 3
887 7 890 3 4 430 6 947 5 l941 -3 3 -887z"/>
<path d="M1292 2108 l3 -23 418 -3 417 -2 0 -190 0 -190 -45 0 c-44 0 -45 1
-34 22 15 28 6 144 -14 166 -8 9 -17 35 -20 57 -8 47 -28 65 -73 65 -37 0 -64
-29 -64 -67 0 -12 -9 -37 -20 -55 -23 -38 -28 -156 -8 -176 9 -9 -52 -12 -274
-12 l-286 0 -4 158 c-3 167 -9 190 -55 211 -16 7 -151 11 -389 11 l-366 0 -29
-29 -29 -29 0 -717 0 -717 29 -29 29 -29 366 0 c252 0 373 4 390 11 52 24 56
52 56 363 l0 286 420 0 420 0 0 -330 0 -330 -417 -2 c-410 -3 -418 -3 -418
-23 0 -20 8 -20 439 -23 345 -2 441 0 448 10 9 15 11 1598 2 1622 -5 14 -55
16 -451 16 l-444 0 3 -22z m-74 -90 c17 -17 17 -1409 0 -1426 -9 -9 -104 -12
-364 -12 -307 0 -355 2 -368 16 -14 14 -16 91 -16 705 0 457 4 697 10 710 10
18 25 19 368 19 265 0 361 -3 370 -12z m742 -73 c0 -8 -7 -15 -15 -15 -8 0
-15 7 -15 15 0 8 7 15 15 15 8 0 15 -7 15 -15z m28 -77 c7 -7 12 -40 12 -78 0
-38 5 -71 12 -78 9 -9 -6 -12 -67 -11 -44 0 -74 3 -67 6 8 3 12 27 12 71 0 47
5 71 17 84 18 20 63 24 81 6z m142 -418 l0 -200 -420 0 -420 0 0 200 0 200
420 0 420 0 0 -200z"/>
<path d="M761 1814 c-88 -73 -10 -218 100 -185 68 21 98 89 67 156 -26 57
-115 73 -167 29z m111 -41 c50 -45 -11 -126 -68 -89 -31 21 -39 52 -20 81 19
29 60 33 88 8z"/>
<path d="M817 1443 c-4 -3 -7 -37 -7 -75 0 -37 -2 -68 -5 -68 -2 0 -27 14 -56
30 -55 33 -84 35 -84 7 0 -11 22 -30 58 -51 l58 -32 -58 -35 c-32 -19 -59 -41
-61 -50 -5 -30 27 -29 78 1 28 17 55 30 60 30 5 0 10 -30 12 -67 3 -60 5 -68
23 -68 18 0 20 8 23 68 2 37 6 67 9 67 3 0 30 -14 59 -31 30 -17 58 -28 64
-24 24 15 7 42 -45 73 -30 18 -55 35 -55 37 0 2 25 17 55 34 38 21 55 37 55
51 0 28 -24 25 -87 -10 l-53 -30 0 63 c0 69 -19 104 -43 80z"/>
<path d="M1124 1407 c-2 -7 -3 -65 -2 -128 3 -106 4 -114 23 -114 19 0 20 8
23 128 2 123 2 127 -18 127 -11 0 -23 -6 -26 -13z"/>
<path d="M1460 1532 c0 -45 -4 -63 -19 -76 -30 -27 -42 -68 -39 -127 3 -46 6
-54 23 -54 17 0 21 8 25 61 6 76 27 104 79 104 48 0 81 -46 81 -113 0 -50 12
-66 36 -46 26 21 14 117 -18 160 -20 25 -28 48 -30 89 l-3 55 -67 3 -68 3 0
-59z m90 -12 c0 -13 -7 -20 -20 -20 -13 0 -20 7 -20 20 0 13 7 20 20 20 13 0
20 -7 20 -20z"/>
<path d="M1737 1554 c-4 -4 -7 -29 -7 -55 0 -35 5 -51 18 -61 14 -9 21 -34 28
-88 8 -65 12 -75 29 -75 18 0 20 6 18 78 l-3 77 61 0 61 0 -7 -75 c-6 -65 -5
-76 10 -81 26 -10 33 5 41 81 5 52 12 73 26 83 15 11 18 24 16 65 l-3 52 -141
3 c-77 1 -143 -1 -147 -4z m241 -56 c-3 -9 -32 -13 -98 -13 -66 0 -95 4 -97
13 -4 9 20 12 97 12 77 0 101 -3 98 -12z"/>
<path d="M1376 1869 c-23 -18 -26 -28 -26 -79 0 -41 4 -59 14 -63 22 -8 34 13
38 63 l3 45 124 3 c82 2 128 -1 137 -9 8 -6 14 -30 14 -54 0 -44 18 -63 39
-42 27 27 3 137 -34 151 -9 3 -76 6 -149 6 -120 0 -136 -2 -160 -21z"/>
<path d="M1407 1053 c-4 -3 -7 -23 -7 -43 0 -28 -6 -41 -22 -52 -22 -15 -23
-21 -26 -200 -3 -160 -1 -186 13 -198 21 -18 33 -4 37 45 l3 40 135 0 135 0 3
-40 c4 -48 16 -63 37 -45 12 10 15 42 15 192 0 178 0 179 -25 202 -19 18 -25
33 -25 65 l0 41 -133 0 c-74 0 -137 -3 -140 -7z m223 -63 c0 -19 -7 -20 -90
-20 -83 0 -90 1 -90 20 0 19 7 20 90 20 83 0 90 -1 90 -20z m48 -182 l3 -108
-141 0 -140 0 0 103 c0 57 3 107 7 111 4 3 66 5 137 4 l131 -3 3 -107z"/>
<path d="M1800 830 c-21 -21 -27 -79 -10 -96 5 -5 10 -45 12 -89 3 -72 5 -80
23 -80 18 0 20 8 23 73 l3 72 84 0 85 0 0 -64 c0 -44 5 -67 15 -76 28 -23 43
5 48 93 3 45 8 93 12 107 5 18 0 33 -15 53 -21 27 -23 27 -141 27 -106 0 -121
-2 -139 -20z m240 -50 c0 -19 -7 -20 -105 -20 -98 0 -105 1 -105 20 0 19 7 20
105 20 98 0 105 -1 105 -20z"/>
<path d="M482 318 c-18 -18 -15 -52 9 -82 l20 -26 203 0 c233 0 246 4 246 70
0 21 -5 42 -10 45 -16 10 -40 -15 -40 -41 l0 -24 -192 2 -193 3 -5 29 c-6 33
-20 42 -38 24z"/>
<path d="M1647 323 c-4 -3 -7 -23 -7 -44 0 -65 14 -69 246 -69 l203 0 20 26
c25 32 27 67 6 84 -19 16 -32 5 -37 -30 l-3 -25 -192 -3 -193 -2 0 23 c0 33
-26 57 -43 40z"/>
</g>
</svg>