<svg version="1.0" xmlns="http://www.w3.org/2000/svg"
 width="512.000000pt" height="512.000000pt" viewBox="0 0 512.000000 512.000000"
 preserveAspectRatio="xMidYMid meet">

<g transform="translate(0.000000,512.000000) scale(0.100000,-0.100000)"
fill="#000000" stroke="none">
<path d="M1465 4855 l-25 -24 0 -831 0 -831 25 -24 24 -25 1071 0 1071 0 24
25 25 24 0 831 0 831 -25 24 -24 25 -1071 0 -1071 0 -24 -25z m1310 -320 c24
-23 25 -29 25 -160 l0 -135 135 0 c131 0 137 -1 160 -25 25 -24 25 -26 25
-215 0 -189 0 -191 -25 -215 -23 -24 -29 -25 -160 -25 l-135 0 0 -135 c0 -131
-1 -137 -25 -160 -24 -25 -26 -25 -215 -25 -189 0 -191 0 -215 25 -24 23 -25
29 -25 160 l0 135 -135 0 c-131 0 -137 1 -160 25 -25 24 -25 26 -25 215 0 189
0 191 25 215 23 24 29 25 160 25 l135 0 0 135 c0 131 1 137 25 160 24 25 26
25 215 25 189 0 191 0 215 -25z"/>
<path d="M678 4069 c-10 -5 -22 -18 -27 -27 -13 -25 -251 -1270 -251 -1313 1
-111 62 -250 151 -338 114 -114 223 -151 449 -151 201 0 284 22 398 103 l42
30 0 302 0 303 -30 12 c-42 17 -104 90 -118 138 -9 28 -12 175 -12 496 l0 456
-292 0 c-179 0 -300 -5 -310 -11z"/>
<path d="M3840 3624 c0 -321 -3 -468 -12 -496 -14 -48 -76 -121 -118 -138
l-30 -12 0 -302 1 -301 42 -31 c108 -81 196 -104 397 -104 226 0 335 37 449
151 89 88 150 227 151 338 0 42 -238 1289 -251 1313 -19 35 -45 38 -338 38
l-291 0 0 -456z"/>
<path d="M1600 2668 l1 -293 42 -31 c108 -81 196 -104 397 -104 201 0 284 22
398 103 l42 30 0 294 0 293 -440 0 -440 0 0 -292z"/>
<path d="M2640 2668 l1 -293 42 -31 c108 -81 196 -104 397 -104 201 0 284 22
398 103 l42 30 0 294 0 293 -440 0 -440 0 0 -292z"/>
<path d="M1479 2204 c-51 -38 -116 -69 -199 -96 -69 -21 -93 -23 -280 -23
-185 0 -212 2 -277 23 -39 12 -74 22 -77 22 -3 0 -6 -414 -6 -920 l0 -921 25
-24 c24 -25 24 -25 240 -25 l215 0 0 735 0 736 25 24 24 25 551 0 551 0 24
-25 25 -24 0 -736 0 -735 1055 0 1056 0 24 25 25 24 0 921 c0 506 -3 920 -7
920 -5 0 -37 -10 -73 -22 -54 -17 -96 -22 -245 -25 -246 -6 -359 19 -498 111
l-57 38 -57 -38 c-139 -92 -252 -118 -498 -111 -225 6 -296 24 -432 114 l-53
35 -57 -38 c-139 -92 -252 -118 -498 -111 -149 4 -192 8 -250 27 -70 22 -158
66 -204 101 -30 24 -30 24 -72 -7z m2416 -469 l25 -24 0 -471 0 -471 -25 -24
-24 -25 -591 0 -591 0 -24 25 -25 24 0 471 0 471 25 24 24 25 591 0 591 0 24
-25z"/>
</g>
</svg>