<svg version="1.0" xmlns="http://www.w3.org/2000/svg"
 width="512.000000pt" height="512.000000pt" viewBox="0 0 512.000000 512.000000"
 preserveAspectRatio="xMidYMid meet">

<g transform="translate(0.000000,512.000000) scale(0.100000,-0.100000)"
fill="#000000" stroke="none">
<path d="M2324 5109 c-106 -10 -300 -44 -394 -70 -476 -129 -844 -341 -1185
-683 -584 -585 -847 -1421 -705 -2236 23 -137 76 -335 120 -451 88 -233 254
-523 410 -715 82 -101 283 -302 384 -384 198 -160 490 -326 727 -414 336 -124
742 -178 1097 -146 216 19 470 76 661 146 237 88 529 254 727 414 101 82 302
283 384 384 156 192 322 482 410 715 110 292 169 654 156 971 -20 534 -193
1027 -507 1445 -38 51 -69 97 -69 103 0 18 -255 270 -350 346 -216 173 -519
346 -755 430 -359 128 -754 180 -1111 145z m559 -184 c273 -38 551 -127 777
-246 203 -108 464 -302 610 -454 l45 -46 -105 -102 c-228 -221 -506 -396 -813
-511 -856 -321 -1837 -119 -2487 511 l-105 102 45 46 c146 152 407 346 610
454 275 145 616 240 955 265 90 7 364 -4 468 -19z m-2123 -946 c227 -210 409
-338 648 -459 731 -368 1573 -368 2306 1 234 118 410 242 641 453 41 38 77 67
78 65 2 -2 28 -38 58 -79 234 -320 386 -702 440 -1110 20 -148 17 -481 -5
-625 -80 -524 -310 -980 -681 -1350 -370 -371 -827 -601 -1350 -681 -167 -25
-503 -25 -670 0 -523 80 -980 310 -1350 681 -371 370 -601 826 -681 1350 -22
144 -25 477 -5 625 54 406 202 780 441 1112 30 43 57 77 60 77 3 0 34 -27 70
-60z"/>
<path d="M4594 3040 c-56 -22 -70 -95 -28 -137 66 -65 185 31 126 103 -17 22
-54 45 -69 43 -4 0 -18 -4 -29 -9z"/>
<path d="M465 3028 c-71 -41 -51 -138 32 -154 57 -11 101 58 77 121 -7 17 -54
45 -76 45 -7 0 -22 -6 -33 -12z"/>
<path d="M778 2952 c-60 -31 -64 -107 -5 -142 44 -27 63 -25 98 9 70 71 -4
177 -93 133z"/>
<path d="M4268 2952 c-60 -30 -63 -103 -6 -145 32 -24 68 -18 104 18 66 66
-14 169 -98 127z"/>
<path d="M1093 2828 c-34 -9 -63 -49 -63 -88 0 -27 52 -80 79 -80 82 0 123 86
69 147 -25 27 -45 32 -85 21z"/>
<path d="M3984 2829 c-12 -4 -31 -20 -43 -36 -41 -51 -9 -118 62 -130 31 -5
40 -1 67 25 41 41 40 65 -5 130 -7 10 -64 18 -81 11z"/>
<path d="M1325 2625 c-31 -30 -32 -73 -5 -108 25 -32 50 -40 82 -28 41 15 58
40 58 81 0 72 -84 106 -135 55z"/>
<path d="M3675 2615 c-49 -48 -21 -122 51 -132 79 -10 123 67 73 131 -28 36
-89 37 -124 1z"/>
<path d="M1570 2402 c-34 -35 -39 -70 -13 -108 22 -35 55 -46 93 -33 32 12 60
53 60 88 0 30 -41 70 -77 77 -27 5 -37 1 -63 -24z"/>
<path d="M3447 2409 c-28 -17 -39 -57 -26 -96 16 -50 59 -66 113 -42 49 23 53
114 6 139 -24 13 -70 12 -93 -1z"/>
<path d="M1766 2139 c-59 -46 -18 -143 61 -143 41 0 83 39 83 77 0 22 -24 65
-44 79 -21 15 -74 8 -100 -13z"/>
<path d="M3254 2152 c-20 -14 -44 -56 -44 -78 0 -34 37 -73 76 -80 78 -14 129
97 68 145 -26 21 -79 28 -100 13z"/>
<path d="M1044 2040 c-65 -14 -136 -54 -183 -105 -135 -146 -116 -371 40 -495
68 -54 132 -73 227 -68 296 14 429 372 215 580 -73 71 -201 108 -299 88z m148
-186 c40 -21 79 -77 85 -124 8 -56 -20 -123 -65 -158 -30 -23 -45 -27 -101
-27 -78 0 -120 24 -151 85 -75 148 83 301 232 224z"/>
<path d="M3944 2040 c-214 -44 -331 -276 -241 -474 54 -117 159 -188 289 -194
95 -5 159 14 227 68 120 95 164 266 103 403 -61 139 -232 227 -378 197z m108
-170 c106 -30 157 -143 108 -240 -28 -55 -72 -83 -139 -88 -115 -7 -198 88
-177 202 9 45 62 104 111 121 49 17 51 17 97 5z"/>
<path d="M1922 1847 c-49 -52 -13 -137 57 -137 70 0 109 91 58 138 -32 30 -87
29 -115 -1z"/>
<path d="M3080 1845 c-33 -35 -31 -81 4 -112 57 -49 136 -15 136 58 0 73 -90
107 -140 54z"/>
<path d="M2022 1537 c-48 -51 -13 -137 55 -137 42 0 72 28 79 72 5 30 2 41
-19 62 -34 34 -85 35 -115 3z"/>
<path d="M2981 1534 c-38 -48 -21 -109 37 -133 41 -17 79 0 98 45 8 19 12 43
9 53 -20 63 -106 84 -144 35z"/>
<path d="M2072 1214 c-29 -29 -33 -39 -28 -66 9 -47 33 -68 77 -68 29 0 43 6
63 31 32 38 33 60 1 97 -38 45 -72 47 -113 6z"/>
<path d="M2939 1211 c-35 -35 -38 -77 -8 -115 58 -74 184 19 139 104 -9 17
-58 40 -87 40 -8 0 -28 -13 -44 -29z"/>
<path d="M2075 885 c-62 -61 3 -162 85 -134 36 13 64 61 56 95 -16 63 -96 85
-141 39z"/>
<path d="M2937 890 c-51 -40 -38 -117 23 -139 83 -28 146 71 84 133 -32 31
-71 34 -107 6z"/>
<path d="M2110 583 c-61 -22 -79 -95 -35 -138 61 -62 167 7 134 87 -6 16 -24
35 -40 43 -30 16 -35 17 -59 8z"/>
<path d="M2949 575 c-55 -30 -59 -103 -7 -139 33 -23 68 -20 100 11 34 33 36
72 6 107 -29 32 -66 40 -99 21z"/>
</g>
</svg>