<svg version="1.1" xmlns="http://www.w3.org/2000/svg" width="512" height="512">
<path d="M0 0 C1.4245752 -0.00744736 1.4245752 -0.00744736 2.87792969 -0.01504517 C6.02946692 -0.02968752 9.18095383 -0.03647208 12.33251953 -0.04199219 C14.5172628 -0.04774172 16.70200604 -0.05349948 18.88674927 -0.05926514 C23.47170243 -0.06978089 28.05663803 -0.07561987 32.64160156 -0.07910156 C38.5220326 -0.08458894 44.4022324 -0.10861986 50.28259087 -0.13707352 C54.79668866 -0.15567932 59.31073052 -0.16090439 63.82486343 -0.16243744 C65.99303579 -0.16546891 68.16120704 -0.17351398 70.32934189 -0.18662262 C73.36036625 -0.20364074 76.3908225 -0.20181319 79.421875 -0.1953125 C80.32072418 -0.20452728 81.21957336 -0.21374207 82.1456604 -0.22323608 C88.18990369 -0.18254278 88.18990369 -0.18254278 91.3664856 1.49591064 C93.87260424 4.3274433 93.96222846 6.99856421 93.93798828 10.61035156 C93.93476563 11.45791016 93.93154297 12.30546875 93.92822266 13.17871094 C93.91984375 14.05978516 93.91146484 14.94085938 93.90283203 15.84863281 C93.89832031 16.74130859 93.89380859 17.63398437 93.88916016 18.55371094 C93.87738186 20.75625268 93.86093367 22.9586588 93.84033203 25.16113281 C95.08203659 25.15447098 96.32374115 25.14780914 97.60307312 25.14094543 C109.30082339 25.08014947 120.99854163 25.03516738 132.69641399 25.0056963 C138.71051807 24.99003562 144.72449468 24.96878972 150.73852539 24.93481445 C156.5416114 24.90223577 162.34457474 24.88428283 168.14774513 24.87650108 C170.36254622 24.87095493 172.57734055 24.86012477 174.79208946 24.84394264 C177.89254682 24.82218854 180.99249627 24.81916509 184.09301758 24.82055664 C185.01011505 24.80977081 185.92721252 24.79898499 186.87210083 24.78787231 C191.6700264 24.81119764 194.97027108 24.98369278 198.84033203 28.16113281 C200.21741639 30.91530153 199.96965887 33.12147214 199.97455311 36.20571709 C199.97901095 37.50305554 199.9834688 38.800394 199.98806173 40.13704574 C199.98797242 41.59045848 199.98778255 43.04387122 199.98750305 44.49728394 C199.9908006 46.03058596 199.99452593 47.56388712 199.99864453 49.09718716 C200.00868489 53.32633278 200.01238458 57.5554642 200.01503384 61.78462005 C200.0189308 66.339584 200.02850946 70.89453665 200.0372467 75.44949341 C200.05702699 86.45655734 200.06707871 97.46362222 200.07597449 108.47069949 C200.0803543 113.64941352 200.08572185 118.82812653 200.09096336 124.00683975 C200.1079762 141.21338374 200.12247196 158.41992708 200.1297121 175.6264782 C200.13162211 180.09359615 200.13354243 184.5607141 200.13549805 189.02783203 C200.13598179 190.13816048 200.13646553 191.24848893 200.13696393 192.3924637 C200.14527016 210.39247571 200.17061682 228.3924214 200.20307872 246.39240442 C200.23610793 264.85689103 200.25415706 283.32134387 200.25735635 301.78586018 C200.25952514 312.15943522 200.26832782 322.53291349 200.29381752 332.90645981 C200.31546796 341.73811079 200.32360289 350.56964152 200.31385074 359.40131603 C200.30928972 363.91016277 200.31129623 368.4187611 200.33061218 372.92757416 C200.34812867 377.05182213 200.34734081 381.17563836 200.33171489 385.29989018 C200.32932119 386.79518623 200.33375279 388.29051129 200.34554354 389.78576277 C200.36053755 391.81207799 200.34866558 393.83853953 200.33531666 395.86486626 C200.33629347 396.99231093 200.33727028 398.11975561 200.33827668 399.28136528 C199.71587803 402.8808887 198.79828254 404.05351711 195.84033203 406.16113281 C193.37964773 406.66252947 193.37964773 406.66252947 190.56478119 406.66449738 C189.48988135 406.67492836 188.41498151 406.68535935 187.30750895 406.69610643 C185.53729702 406.6827221 185.53729702 406.6827221 183.73132324 406.66906738 C181.84995423 406.67842733 181.84995423 406.67842733 179.93057775 406.68797636 C176.44690929 406.70470304 172.9636781 406.69640855 169.48000789 406.68403149 C165.72397162 406.67499681 161.96801158 406.68894282 158.21199036 406.69995117 C150.85307041 406.71775799 143.49431345 406.71388684 136.13538706 406.70230061 C130.15581143 406.69327504 124.17628154 406.69203848 118.19670105 406.69639587 C116.92119248 406.69731527 116.92119248 406.69731527 115.61991605 406.69825324 C113.8925861 406.69953212 112.16525616 406.70082897 110.43792623 406.70214361 C94.2324511 406.71355574 78.0270664 406.7004258 61.8216061 406.67894214 C47.90999678 406.66107058 33.99852097 406.66417451 20.08691406 406.68261719 C3.94029431 406.70401274 -12.20624614 406.71245704 -28.35287809 406.70016813 C-30.07393105 406.69889391 -31.79498401 406.69763642 -33.51603699 406.69639587 C-34.78629557 406.69547022 -34.78629557 406.69547022 -36.08221593 406.69452587 C-42.05611678 406.69106901 -48.02996741 406.69690852 -54.00386047 406.70631409 C-61.28191818 406.71752087 -68.55980328 406.71452199 -75.83784115 406.69319111 C-79.55279997 406.68266274 -83.26747077 406.67858893 -86.9824276 406.69178772 C-91.00542332 406.705865 -95.02768888 406.68908194 -99.05065918 406.66906738 C-100.8208711 406.68245171 -100.8208711 406.68245171 -102.62684488 406.69610643 C-104.23919464 406.68045995 -104.23919464 406.68045995 -105.88411713 406.66449738 C-106.81302309 406.66384797 -107.74192904 406.66319856 -108.69898367 406.66252947 C-112.0327811 405.98322458 -113.17983174 404.90907184 -115.15966797 402.16113281 C-115.65991396 399.28366661 -115.65991396 399.28366661 -115.66023922 395.87045288 C-115.67005351 394.56913233 -115.6798678 393.26781178 -115.68997949 391.92705727 C-115.68063996 390.47952668 -115.67092438 389.03199848 -115.66087341 387.58447266 C-115.66476475 386.04944022 -115.67040384 384.51441139 -115.67764431 382.9793911 C-115.69244122 378.75463788 -115.68219279 374.53025578 -115.6679076 370.30551434 C-115.65682565 365.7519361 -115.66873117 361.19841112 -115.67774963 356.64483643 C-115.69170309 347.72179393 -115.6841104 338.79889268 -115.66907405 329.87585688 C-115.65223841 319.49090242 -115.65542112 309.10598339 -115.65916813 298.72101951 C-115.66505057 280.1951693 -115.65086009 261.669387 -115.6262207 243.14355469 C-115.60229881 225.15524754 -115.59521596 207.16703113 -115.60571289 189.17871094 C-115.61711495 169.60414804 -115.61906097 150.02962715 -115.60461479 130.45506477 C-115.60308891 128.36890793 -115.60156855 126.28275109 -115.60005379 124.19659424 C-115.59929597 123.17008802 -115.59853816 122.1435818 -115.59775738 121.08596933 C-115.59300904 113.84219832 -115.59486988 106.59844602 -115.59911919 99.35467529 C-115.60403925 90.53038939 -115.59809102 81.70618939 -115.57822489 72.8819232 C-115.56833413 68.37716582 -115.56326693 63.8725394 -115.5711174 59.36777496 C-115.57815131 55.24735034 -115.57142361 51.12719049 -115.55351377 47.00680089 C-115.54945434 45.51292075 -115.55049406 44.01901664 -115.55703264 42.52514529 C-115.56513789 40.50070936 -115.55311436 38.47622233 -115.5399847 36.45181274 C-115.53895557 35.32545221 -115.53792644 34.19909168 -115.53686613 33.03859901 C-115.11388625 29.81188579 -114.44079686 28.44994298 -112.15966797 26.16113281 C-108.14373954 24.82249 -104.28492513 25.0304551 -100.09838867 25.04760742 C-99.17136139 25.0474614 -98.24433411 25.04731537 -97.28921509 25.04716492 C-94.22126943 25.04786227 -91.15338429 25.05564645 -88.08544922 25.06347656 C-85.95981377 25.06534137 -83.8341779 25.06676498 -81.70854187 25.06776428 C-76.11077693 25.07158452 -70.5130379 25.08141062 -64.9152832 25.09246826 C-59.20443065 25.10269297 -53.49357391 25.10726418 -47.78271484 25.11230469 C-36.57502117 25.12303331 -25.36734672 25.14010384 -14.15966797 25.16113281 C-14.19447266 23.84757812 -14.22927734 22.53402344 -14.26513672 21.18066406 C-14.29328263 19.4449998 -14.32058193 17.70932167 -14.34716797 15.97363281 C-14.37230469 15.10931641 -14.39744141 14.245 -14.42333984 13.35449219 C-14.47945147 8.4727806 -14.4145698 5.09381082 -11.15966797 1.16113281 C-7.72629631 -0.55555302 -3.77889332 0.00467857 0 0 Z M1.84033203 16.16113281 C1.84033203 26.06113281 1.84033203 35.96113281 1.84033203 46.16113281 C26.92033203 46.16113281 52.00033203 46.16113281 77.84033203 46.16113281 C77.84033203 36.26113281 77.84033203 26.36113281 77.84033203 16.16113281 C52.76033203 16.16113281 27.68033203 16.16113281 1.84033203 16.16113281 Z M-99.15966797 41.16113281 C-99.15966797 156.33113281 -99.15966797 271.50113281 -99.15966797 390.16113281 C-5.76966797 390.16113281 87.62033203 390.16113281 183.84033203 390.16113281 C183.84033203 274.99113281 183.84033203 159.82113281 183.84033203 41.16113281 C154.14033203 41.16113281 124.44033203 41.16113281 93.84033203 41.16113281 C93.51033203 46.11113281 93.18033203 51.06113281 92.84033203 56.16113281 C87.21511749 61.78634735 87.21511749 61.78634735 83.62817383 61.79605103 C82.41706436 61.81719971 82.41706436 61.81719971 81.18148804 61.83877563 C80.30964874 61.82865448 79.43780945 61.81853333 78.53955078 61.80810547 C77.61050934 61.81686707 76.6814679 61.82562866 75.72427368 61.83465576 C72.65831574 61.85663293 69.59380421 61.84210265 66.52783203 61.82519531 C64.39460982 61.82856392 62.26138947 61.83341691 60.12817383 61.83969116 C55.65931916 61.84706023 51.19096448 61.83635548 46.72216797 61.81298828 C40.99519554 61.78450094 35.26939466 61.80090466 29.54246521 61.8308506 C25.13805318 61.84892236 20.7339187 61.843166 16.32949829 61.83021164 C14.21798565 61.82687731 12.10644777 61.83096561 9.9949646 61.84260941 C7.04300235 61.85531573 4.09293449 61.83594348 1.14111328 61.80810547 C-0.16664566 61.8232872 -0.16664566 61.8232872 -1.50082397 61.83877563 C-2.30823029 61.82467651 -3.1156366 61.81057739 -3.94750977 61.79605103 C-4.64434372 61.7941659 -5.34117767 61.79228077 -6.05912781 61.79033852 C-8.15966797 61.16113281 -8.15966797 61.16113281 -13.15966797 56.16113281 C-13.65466797 48.73613281 -13.65466797 48.73613281 -14.15966797 41.16113281 C-42.20966797 41.16113281 -70.25966797 41.16113281 -99.15966797 41.16113281 Z " fill="#000000" transform="translate(216.15966796875,29.8388671875)"/>
<path d="M0 0 C1.06413705 -0.00445668 1.06413705 -0.00445668 2.14977181 -0.0090034 C4.53883468 -0.01770968 6.92784755 -0.01920026 9.31692505 -0.02069092 C11.02499499 -0.02531771 12.7330639 -0.03034218 14.44113159 -0.03573608 C19.08989341 -0.04887496 23.73864078 -0.05530786 28.38741827 -0.05974674 C31.28973556 -0.06267489 34.19204887 -0.06677918 37.09436417 -0.07125092 C46.16914123 -0.08492935 55.24390924 -0.09459449 64.3186959 -0.09845281 C74.80528663 -0.10293549 85.29174714 -0.1204917 95.77829826 -0.1494534 C103.8768506 -0.17104601 111.97536624 -0.18115578 120.07394707 -0.18249393 C124.91428701 -0.18354363 129.75450459 -0.1894866 134.5948143 -0.20731354 C139.14694129 -0.22375259 143.69885342 -0.22597009 148.25099945 -0.21717453 C149.92316131 -0.21640193 151.59533452 -0.2207761 153.2674675 -0.23063278 C155.54771045 -0.24328738 157.8271849 -0.2375115 160.10742188 -0.22705078 C161.3842729 -0.22851734 162.66112392 -0.2299839 163.9766674 -0.2314949 C167.41103427 0.16718068 168.80830145 0.66318154 171.18069458 3.14044189 C172.28442836 7.11388351 172.59613041 9.23043961 170.86819458 13.01544189 C169.18069458 15.14044189 169.18069458 15.14044189 167.18069458 16.14044189 C164.90936021 16.24155352 162.6349668 16.27558394 160.36138916 16.28088379 C159.65196446 16.28385491 158.94253977 16.28682603 158.21161735 16.28988719 C155.82255448 16.29859346 153.43354161 16.30008405 151.04446411 16.30157471 C149.33639417 16.30620149 147.62832526 16.31122596 145.92025757 16.31661987 C141.27149575 16.32975874 136.62274838 16.33619165 131.97397089 16.34063053 C129.0716536 16.34355868 126.16934029 16.34766297 123.26702499 16.3521347 C114.19224793 16.36581314 105.11747992 16.37547828 96.04269326 16.3793366 C85.55610253 16.38381928 75.06964202 16.40137549 64.5830909 16.43033719 C56.48453856 16.4519298 48.38602292 16.46203957 40.28744209 16.46337771 C35.44710215 16.46442742 30.60688457 16.47037039 25.76657486 16.48819733 C21.21444787 16.50463638 16.66253574 16.50685388 12.11038971 16.49805832 C10.43822785 16.49728572 8.76605464 16.50165989 7.09392166 16.51151657 C4.81367871 16.52417117 2.53420426 16.51839529 0.25396729 16.50793457 C-1.02288374 16.50940113 -2.29973476 16.51086769 -3.61527824 16.51237869 C-7.04964511 16.11370311 -8.44691229 15.61770225 -10.81930542 13.14044189 C-11.9230392 9.16700028 -12.23474124 7.05044418 -10.50680542 3.26544189 C-7.44924255 -0.58482245 -4.72638027 0.01101749 0 0 Z " fill="#000000" transform="translate(208.81930541992188,171.85955810546875)"/>
<path d="M0 0 C1.06798196 -0.00958323 1.06798196 -0.00958323 2.15753931 -0.01936007 C4.537848 -0.03459312 6.91648756 -0.01416237 9.29673767 0.00622559 C11.00525463 0.00272388 12.71376833 -0.00293526 14.42227173 -0.0105896 C19.05867654 -0.02483915 23.69448841 -0.00777518 28.33083653 0.01569557 C33.18164557 0.03579715 38.03242982 0.02992543 42.88327026 0.02758789 C51.02835373 0.02764146 59.17320524 0.04740102 67.31822205 0.07946777 C76.7380885 0.11637304 86.1576512 0.12514166 95.57758051 0.11817026 C104.6369106 0.1118679 113.69613642 0.1226138 122.75544548 0.14213562 C126.6122276 0.15031521 130.46895647 0.15301814 134.32574654 0.15144348 C138.86565822 0.15056536 143.40528066 0.16476121 147.94511604 0.19067001 C149.61242267 0.19783959 151.27976005 0.19991163 152.9470787 0.19655228 C155.22064945 0.1928448 157.49337263 0.20755836 159.7668457 0.22705078 C161.03980027 0.2307795 162.31275484 0.23450821 163.62428379 0.23834991 C167.04757047 0.64875051 168.45663322 1.14639651 170.81993103 3.62145996 C171.69274252 7.05036223 172.14915932 9.51405573 171.13243103 12.93395996 C169.47944207 15.05923148 168.34310165 15.64635271 165.81993103 16.62145996 C162.63710785 16.87593555 162.63710785 16.87593555 158.79808044 16.88215637 C158.09103045 16.88598192 157.38398046 16.88980747 156.6555047 16.89374894 C154.28640972 16.90406743 151.91755761 16.90008905 149.54844666 16.89611816 C147.84993261 16.90046523 146.15142053 16.90564837 144.45291138 16.91160583 C139.83936837 16.92500644 135.22590723 16.92557341 130.61234856 16.92304254 C126.76274469 16.92197372 122.91315746 16.92685381 119.06355715 16.93164796 C109.98380066 16.94274644 100.90408555 16.94317838 91.82432556 16.93713379 C82.45164884 16.93109026 73.0791221 16.94341384 63.70647097 16.96470386 C55.66307253 16.98230388 47.6197219 16.98832382 39.57630491 16.98506612 C34.77065675 16.98325084 29.96511562 16.98591392 25.15948486 16.99978065 C20.64178986 17.0123287 16.12432924 17.01044369 11.60663795 16.99736977 C9.94737991 16.99499796 8.28810551 16.99776021 6.6288662 17.00599289 C4.36623044 17.01641121 2.10438839 17.00840013 -0.15821838 16.99568176 C-1.42509743 16.9958495 -2.69197647 16.99601725 -3.99724579 16.99619007 C-7.39684621 16.59593766 -8.77387964 16.00240063 -11.18006897 13.62145996 C-11.96522522 11.75427246 -11.96522522 11.75427246 -12.24256897 9.74645996 C-12.35729553 9.08903809 -12.47202209 8.43161621 -12.59022522 7.75427246 C-11.3270012 1.18550753 -5.79471103 -0.00324251 0 0 Z " fill="#000000" transform="translate(209.18006896972656,237.3785400390625)"/>
<path d="M0 0 C0.71436267 -0.00467997 1.42872535 -0.00935994 2.16473538 -0.01418173 C4.5646873 -0.02617265 6.9640725 -0.01665882 9.36402893 -0.00723267 C11.08210077 -0.0112966 12.80017 -0.01663747 14.51823425 -0.02316284 C19.18972872 -0.03686456 23.86102489 -0.03152578 28.53252292 -0.02202559 C33.41671718 -0.01444253 38.3008942 -0.02147094 43.18508911 -0.02618408 C51.38913528 -0.03164611 59.59310051 -0.02443885 67.7971344 -0.01016235 C77.2862454 0.00615958 86.77516299 0.00088077 96.26426929 -0.01564157 C104.40531841 -0.0292502 112.54630925 -0.03117898 120.68736607 -0.02332556 C125.55226472 -0.01864492 130.41707243 -0.01803483 135.28196526 -0.02793503 C139.85629336 -0.03659316 144.43037189 -0.03060392 149.004673 -0.01325226 C150.68488844 -0.009281 152.36512482 -0.01043236 154.04533195 -0.01704025 C156.33649569 -0.02522095 158.62685638 -0.01497696 160.91796875 0 C162.2008953 0.00113108 163.48382185 0.00226215 164.80562496 0.00342751 C168.24423502 0.40697611 169.65276482 0.89298094 172.0224762 3.38095093 C172.89528768 6.80985319 173.35170448 9.27354669 172.3349762 12.69345093 C170.68270632 14.81779791 169.54405282 15.40592806 167.0224762 16.38095093 C163.85527039 16.63263321 163.85527039 16.63263321 160.03858948 16.63491821 C158.98413981 16.63959818 158.98413981 16.63959818 157.90838814 16.6443727 C155.55310301 16.65234938 153.19807575 16.64603043 150.8427887 16.63973999 C149.15412749 16.64245 147.46546747 16.64601099 145.77680969 16.65036011 C141.19011797 16.65948518 136.60351613 16.65593936 132.01682281 16.64960194 C127.21938838 16.64454257 122.42196171 16.64923321 117.62452698 16.65237427 C109.56770952 16.65601409 101.51092872 16.65121438 93.45411682 16.64169312 C84.13600032 16.63080854 74.81797133 16.6343341 65.49985695 16.64534593 C57.50316938 16.65441832 49.50650818 16.65570431 41.50981712 16.65046859 C36.73214152 16.64734863 31.95450707 16.64694026 27.17683411 16.65354156 C22.68544157 16.6593137 18.194162 16.65532055 13.70278168 16.64375305 C12.05320168 16.64110576 10.40361219 16.64187274 8.75403595 16.64627838 C6.50468271 16.65173256 4.25569292 16.64490143 2.00636292 16.63491821 C0.74685822 16.63416416 -0.51264648 16.63341011 -1.81031799 16.63263321 C-4.82311283 16.39322121 -6.48595201 16.03074911 -8.9775238 14.38095093 C-11.07431783 11.68507289 -10.97263201 10.28800693 -10.7900238 6.81845093 C-9.22776771 0.20890592 -6.47697126 0.00571202 0 0 Z " fill="#000000" transform="translate(207.97752380371094,303.6190490722656)"/>
<path d="M0 0 C1.50438931 -0.01654423 3.0087005 -0.04381485 4.51269531 -0.08203125 C6.68685471 -0.13696442 8.85917452 -0.15869604 11.03393555 -0.17333984 C12.33564697 -0.19315918 13.6373584 -0.21297852 14.97851562 -0.23339844 C19.32679715 0.49707129 20.77075527 1.92052296 23.4519043 5.35009766 C24.0769043 8.35009766 24.0769043 8.35009766 23.4519043 11.35009766 C20.78445396 14.74648618 19.31011883 16.19272484 15.01025391 16.98120117 C13.72127197 16.98047607 12.43229004 16.97975098 11.10424805 16.97900391 C10.41053604 16.98141586 9.71682404 16.98382782 9.00209045 16.98631287 C7.54218808 16.98533733 6.08224736 16.97201339 4.62255859 16.94702148 C2.39186818 16.91263564 0.16512744 16.92638969 -2.06567383 16.94580078 C-3.48821667 16.93890345 -4.91074933 16.92923206 -6.33325195 16.91650391 C-7.62110596 16.90562744 -8.90895996 16.89475098 -10.23583984 16.88354492 C-14.07427051 16.26535586 -15.24765641 15.42398761 -17.5480957 12.35009766 C-18.72400544 8.66558047 -18.88290909 7.06755491 -17.2355957 3.53759766 C-13.27909168 -1.59120386 -5.9545251 0.04799421 0 0 Z " fill="#000000" transform="translate(154.548095703125,171.64990234375)"/>
<path d="M0 0 C2.22860987 0.00097224 4.45377195 -0.04065957 6.68188477 -0.08496094 C8.10570575 -0.09016873 9.52953864 -0.09285612 10.95336914 -0.09277344 C12.24235107 -0.09986328 13.53133301 -0.10695312 14.859375 -0.11425781 C19.16770378 0.65590524 20.63242851 2.10030891 23.30102539 5.50097656 C23.92602539 8.50097656 23.92602539 8.50097656 23.30102539 11.50097656 C20.66067026 14.84645278 19.2004851 16.3400427 14.95117188 17.1003418 C13.08054077 17.08015991 13.08054077 17.08015991 11.17211914 17.05957031 C10.1648452 17.05607323 10.1648452 17.05607323 9.13722229 17.05250549 C7.72432667 17.0428033 6.31146789 17.02109695 4.89892578 16.98803711 C2.74135505 16.93854148 0.58606639 16.92654853 -1.57202148 16.92089844 C-13.31381858 16.80079238 -13.31381858 16.80079238 -16.69897461 14.50097656 C-18.41068539 11.56661523 -18.71015921 9.78059154 -18.57397461 6.37597656 C-16.06696231 -1.86134956 -7.0594857 -0.02177174 0 0 Z " fill="#000000" transform="translate(154.698974609375,237.4990234375)"/>
<path d="M0 0 C1.55972204 -0.01656514 3.11936799 -0.04386323 4.67871094 -0.08203125 C6.92976152 -0.13683032 9.17903618 -0.15867422 11.43066406 -0.17333984 C12.12557953 -0.19600922 12.820495 -0.21867859 13.53646851 -0.24203491 C17.24792865 -0.22585911 18.69316653 0.08514154 21.41357422 2.69140625 C23.30471446 5.92242558 23.51894079 7.66251638 22.96972656 11.35009766 C21.18988252 14.48601336 20.44664449 15.19112501 16.96972656 16.35009766 C12.71617152 16.59980028 8.46058386 16.62082734 4.20068359 16.64526367 C2.80019025 16.65679103 1.39974111 16.67725535 -0.00048828 16.70678711 C-2.02894801 16.7495544 -4.05610584 16.7656423 -6.08496094 16.77587891 C-7.29651855 16.79046143 -8.50807617 16.80504395 -9.75634766 16.82006836 C-13.66057194 16.25961856 -15.28385917 15.1333702 -18.03027344 12.35009766 C-19.28637359 8.66030346 -19.37380157 7.08622937 -17.71777344 3.53759766 C-13.79483807 -1.54768893 -5.92893949 0.04618332 0 0 Z " fill="#000000" transform="translate(155.0302734375,303.64990234375)"/>
</svg>