<svg version="1.0" xmlns="http://www.w3.org/2000/svg"
 width="360.000000pt" height="360.000000pt" viewBox="0 0 360.000000 360.000000"
 preserveAspectRatio="xMidYMid meet">

<g transform="translate(0.000000,360.000000) scale(0.100000,-0.100000)"
fill="#000000" stroke="none">
<path d="M1375 3135 c-623 -66 -1023 -303 -1131 -671 -15 -52 -18 -124 -21
-637 -3 -343 0 -610 5 -658 14 -112 61 -206 150 -297 394 -404 1357 -543 2092
-302 361 118 608 317 666 534 11 41 14 184 14 714 l0 663 -112 -3 -113 -3 -5
-110 c-5 -97 -9 -116 -35 -163 -112 -205 -480 -346 -1025 -393 -455 -39 -1002
76 -1245 261 -128 97 -160 150 -160 261 1 68 5 86 38 152 110 223 454 383 921
428 157 15 533 7 646 -15 264 -50 410 -146 410 -271 0 -100 -76 -189 -223
-260 -202 -97 -463 -133 -763 -105 -184 18 -378 65 -398 98 -10 16 90 59 189
83 50 11 137 24 195 27 l105 7 3 114 3 114 -107 -6 c-231 -15 -420 -69 -532
-155 -87 -67 -115 -182 -67 -279 36 -71 105 -120 232 -164 185 -63 612 -91
848 -55 510 78 821 371 726 684 -85 280 -430 424 -1006 421 -99 -1 -234 -7
-300 -14z m-895 -1240 c23 -27 159 -107 250 -146 288 -124 724 -192 1090 -169
464 30 836 131 1051 286 26 19 48 34 50 34 2 0 2 -170 -1 -378 l-5 -379 -28
-41 c-30 -47 -110 -125 -157 -155 l-30 -19 0 211 0 211 -115 0 -115 0 0 -269
0 -269 -27 -10 c-45 -18 -164 -52 -179 -52 -11 0 -14 34 -14 190 l0 191 -112
-3 -113 -3 -3 -212 -2 -212 -43 -5 c-23 -3 -72 -8 -109 -11 l-68 -6 0 336 0
335 -115 0 -115 0 0 -336 0 -335 -55 5 c-30 3 -80 9 -110 12 l-55 5 0 215 0
215 -112 -3 -113 -3 -3 -187 c-2 -157 -5 -188 -17 -188 -8 0 -58 14 -110 30
l-95 31 0 269 0 270 -115 0 -115 0 0 -211 0 -210 -46 33 c-61 43 -132 123
-155 173 -17 36 -19 73 -19 408 0 204 4 367 9 367 5 0 14 -7 21 -15z"/>
</g>
</svg>