<svg version="1.0" xmlns="http://www.w3.org/2000/svg"
 width="200.000000pt" height="200.000000pt" viewBox="0 0 200.000000 200.000000"
 preserveAspectRatio="xMidYMid meet">

<g transform="translate(0.000000,200.000000) scale(0.100000,-0.100000)"
fill="#000000" stroke="none">
<path d="M503 1621 c-58 -15 -124 -61 -154 -109 -53 -83 -62 -157 -30 -242
l19 -49 -57 -32 c-79 -44 -128 -94 -151 -155 -53 -144 -27 -249 74 -295 35
-16 67 -19 207 -19 l166 0 -19 -57 c-46 -135 -12 -233 94 -278 55 -22 641 -22
696 0 43 19 79 50 98 87 19 37 17 132 -5 196 l-18 52 166 0 c140 0 172 3 207
19 101 46 127 151 74 295 -23 61 -72 111 -151 155 l-56 31 20 58 c59 174 -64
346 -248 346 -59 0 -79 -4 -124 -29 -156 -86 -187 -290 -63 -414 95 -95 235
-107 344 -29 l31 22 65 -35 c79 -42 117 -83 137 -151 19 -65 19 -111 0 -148
-28 -54 -55 -60 -259 -60 l-185 0 -62 40 c-33 21 -69 42 -79 45 -18 6 -18 7 0
48 22 48 26 131 8 189 -15 50 -78 122 -132 151 -58 31 -174 31 -232 0 -57 -30
-119 -103 -134 -158 -15 -55 -9 -149 12 -192 15 -30 15 -33 -2 -38 -10 -3 -46
-24 -79 -45 l-62 -40 -185 0 c-204 0 -231 6 -259 60 -19 37 -19 83 0 148 20
68 58 109 136 151 l64 34 51 -33 c106 -65 236 -49 325 40 157 157 59 425 -162
444 -30 3 -68 1 -86 -3z m142 -70 c201 -91 140 -391 -80 -391 -177 0 -269 204
-152 337 39 44 99 73 152 73 22 0 58 -9 80 -19z m870 0 c201 -91 140 -391 -80
-391 -177 0 -269 204 -152 337 39 44 99 73 152 73 22 0 58 -9 80 -19z m-429
-350 c160 -73 154 -307 -8 -376 -152 -63 -318 79 -278 237 23 91 108 158 200
158 25 0 63 -9 86 -19z m-231 -405 c20 -14 61 -30 91 -37 67 -15 144 -1 200
37 44 30 58 28 137 -21 66 -42 100 -93 117 -177 14 -70 -3 -118 -52 -148 -31
-19 -50 -20 -348 -20 -298 0 -317 1 -348 20 -49 30 -66 78 -51 148 21 105 46
137 151 197 53 31 59 31 103 1z"/>
</g>
</svg>