<?xml version="1.0" standalone="no"?>
<!DOCTYPE svg PUBLIC "-//W3C//DTD SVG 20010904//EN"
 "http://www.w3.org/TR/2001/REC-SVG-20010904/DTD/svg10.dtd">
<svg version="1.0" xmlns="http://www.w3.org/2000/svg"
 width="470.000000pt" height="347.000000pt" viewBox="0 0 470.000000 347.000000"
 preserveAspectRatio="xMidYMid meet">

<g transform="translate(0.000000,347.000000) scale(0.100000,-0.100000)"
fill="#000000" stroke="none">
<path d="M201 2638 c0 -134 4 -265 8 -293 5 -32 9 56 10 237 0 169 -3 289 -8
293 -6 3 -10 -89 -10 -237z"/>
<path d="M1300 2490 c0 -216 2 -391 5 -388 8 8 9 767 1 775 -3 4 -6 -171 -6
-387z"/>
<path d="M1687 2537 c2 -187 6 -343 8 -346 3 -2 5 149 5 337 0 187 -4 343 -8
346 -4 2 -6 -149 -5 -337z"/>
<path d="M2780 2471 c0 -226 3 -412 8 -414 4 -3 8 181 9 409 1 248 -2 414 -8
414 -5 0 -9 -165 -9 -409z"/>
<path d="M3122 2478 c1 -292 3 -371 9 -288 10 160 9 690 -2 690 -5 0 -8 -171
-7 -402z"/>
<path d="M4241 2864 c0 -11 3 -14 6 -6 3 7 2 16 -1 19 -3 4 -6 -2 -5 -13z"/>
<path d="M4244 2510 c0 -179 2 -252 3 -162 2 89 2 235 0 325 -1 89 -3 16 -3
-163z"/>
<path d="M3120 2063 c1 -13 30 -48 30 -36 0 7 -5 15 -10 18 -6 4 -8 11 -5 16
4 5 1 9 -4 9 -6 0 -11 -3 -11 -7z"/>
<path d="M1687 2043 c-10 -9 -9 -23 1 -23 5 0 9 7 9 15 0 17 -1 18 -10 8z"/>
<path d="M33 2033 c20 -2 54 -2 75 0 20 2 3 4 -38 4 -41 0 -58 -2 -37 -4z"/>
<path d="M297 2033 c18 -2 50 -2 70 0 21 2 7 4 -32 4 -38 0 -55 -2 -38 -4z"/>
<path d="M562 2035 c6 -7 659 -7 666 0 3 3 -147 5 -333 5 -186 0 -336 -2 -333
-5z"/>
<path d="M1328 2033 c7 -3 16 -2 19 1 4 3 -2 6 -13 5 -11 0 -14 -3 -6 -6z"/>
<path d="M1393 2033 c9 -2 25 -2 35 0 9 3 1 5 -18 5 -19 0 -27 -2 -17 -5z"/>
<path d="M1578 2033 c7 -3 16 -2 19 1 4 3 -2 6 -13 5 -11 0 -14 -3 -6 -6z"/>
<path d="M1808 2033 c29 -2 74 -2 100 0 26 2 2 3 -53 3 -55 0 -76 -1 -47 -3z"/>
<path d="M2062 2035 c7 -7 649 -7 656 0 3 3 -145 5 -328 5 -183 0 -331 -2
-328 -5z"/>
<path d="M2828 2033 c6 -2 18 -2 25 0 6 3 1 5 -13 5 -14 0 -19 -2 -12 -5z"/>
<path d="M2908 2033 c6 -2 18 -2 25 0 6 3 1 5 -13 5 -14 0 -19 -2 -12 -5z"/>
<path d="M3416 2032 c-2 -4 75 -6 172 -4 269 4 293 9 50 10 -120 0 -220 -2
-222 -6z"/>
<path d="M1978 2023 c7 -3 16 -2 19 1 4 3 -2 6 -13 5 -11 0 -14 -3 -6 -6z"/>
<path d="M502 1990 c0 -14 2 -19 5 -12 2 6 2 18 0 25 -3 6 -5 1 -5 -13z"/>
<path d="M1691 1994 c0 -11 3 -14 6 -6 3 7 2 16 -1 19 -3 4 -6 -2 -5 -13z"/>
<path d="M1980 1988 c0 -13 4 -29 8 -36 5 -8 8 1 8 23 -1 19 -4 35 -8 35 -5 0
-8 -10 -8 -22z"/>
<path d="M2786 2003 c-3 -4 -6 -128 -6 -275 1 -147 -1 -271 -3 -275 -3 -5 5
-8 18 -8 21 0 22 2 9 16 -13 14 -15 58 -12 283 2 146 3 266 2 266 0 0 -4 -3
-8 -7z"/>
<path d="M3124 1835 c0 -99 2 -138 3 -87 2 51 2 132 0 180 -1 48 -3 6 -3 -93z"/>
<path d="M3420 1985 c0 -8 4 -15 10 -15 5 0 7 7 4 15 -4 8 -8 15 -10 15 -2 0
-4 -7 -4 -15z"/>
<path d="M1300 1980 c0 -5 5 -10 11 -10 5 0 7 5 4 10 -3 6 -8 10 -11 10 -2 0
-4 -4 -4 -10z"/>
<path d="M1300 1704 c-3 -172 -2 -260 5 -258 6 3 9 80 7 212 -4 318 -8 332
-12 46z"/>
<path d="M1693 1915 c0 -27 2 -38 4 -22 2 15 2 37 0 50 -2 12 -4 0 -4 -28z"/>
<path d="M3424 1945 c-4 -9 -4 -26 -2 -40 3 -14 0 -26 -8 -29 -8 -3 -14 -11
-14 -18 0 -10 3 -10 9 1 5 8 18 12 31 8 21 -5 21 -5 5 13 -12 14 -16 29 -12
50 7 31 1 41 -9 15z"/>
<path d="M1981 1914 c0 -11 3 -14 6 -6 3 7 2 16 -1 19 -3 4 -6 -2 -5 -13z"/>
<path d="M2456 1885 c-3 -9 0 -15 9 -15 9 0 12 6 9 15 -4 8 -7 15 -9 15 -2 0
-5 -7 -9 -15z"/>
<path d="M3907 1886 c-3 -8 2 -16 14 -19 17 -5 18 -3 7 11 -7 9 -13 18 -14 20
-1 2 -4 -4 -7 -12z"/>
<path d="M496 1881 c-3 -5 3 -11 15 -14 16 -4 18 -3 8 9 -13 16 -16 17 -23 5z"/>
<path d="M1976 1881 c-3 -5 3 -11 13 -14 14 -3 18 -1 14 9 -6 16 -19 18 -27 5z"/>
<path d="M980 1876 c0 -2 7 -7 16 -10 8 -3 12 -2 9 4 -6 10 -25 14 -25 6z"/>
<path d="M950 1861 c0 -6 4 -13 10 -16 6 -3 7 1 4 9 -7 18 -14 21 -14 7z"/>
<path d="M2042 1833 c-1 -12 -8 -24 -14 -26 -10 -4 -10 -6 0 -6 6 -1 12 -8 12
-16 0 -11 11 -15 40 -15 40 0 40 0 38 38 -1 36 -1 36 -5 5 -4 -29 -8 -33 -33
-33 -26 0 -29 4 -33 38 -2 20 -4 27 -5 15z"/>
<path d="M2470 1839 c0 -6 -6 -9 -14 -6 -10 4 -12 0 -9 -14 7 -25 16 -30 33
-18 11 6 12 9 2 9 -9 0 -11 7 -7 20 3 11 4 20 1 20 -3 0 -6 -5 -6 -11z"/>
<path d="M3492 1831 c-2 -21 -6 -23 -37 -18 -19 3 -35 2 -35 -4 0 -5 16 -9 35
-9 24 0 35 -5 35 -15 0 -11 10 -15 38 -13 36 1 36 1 5 5 -28 4 -32 8 -36 41
-2 20 -4 26 -5 13z"/>
<path d="M503 1833 c-7 -2 -13 -14 -13 -24 0 -11 4 -18 9 -15 5 4 11 2 13 -3
1 -5 9 -3 16 5 10 12 10 14 -2 14 -10 0 -13 6 -10 15 6 16 6 16 -13 8z"/>
<path d="M990 1829 c0 -5 -4 -7 -10 -4 -6 3 -7 -1 -4 -9 3 -9 14 -16 23 -15 9
0 11 3 4 5 -7 3 -9 12 -6 20 3 8 2 14 -1 14 -3 0 -6 -5 -6 -11z"/>
<path d="M1990 1829 c0 -5 -4 -8 -8 -5 -4 2 -9 -4 -9 -15 -1 -11 2 -17 7 -14
4 3 10 0 12 -7 3 -8 7 -6 11 5 3 9 2 17 -3 17 -5 0 -7 7 -4 15 4 8 3 15 0 15
-3 0 -6 -5 -6 -11z"/>
<path d="M3903 1815 c-8 -22 2 -29 24 -16 17 10 17 10 0 11 -10 0 -15 5 -12
10 3 6 4 10 0 10 -3 0 -8 -7 -12 -15z"/>
<path d="M578 1773 c12 -2 30 -2 40 0 9 3 -1 5 -23 4 -22 0 -30 -2 -17 -4z"/>
<path d="M1058 1773 c12 -2 30 -2 40 0 9 3 -1 5 -23 4 -22 0 -30 -2 -17 -4z"/>
<path d="M2538 1773 c12 -2 30 -2 40 0 9 3 -1 5 -23 4 -22 0 -30 -2 -17 -4z"/>
<path d="M3988 1773 c12 -2 30 -2 40 0 9 3 -1 5 -23 4 -22 0 -30 -2 -17 -4z"/>
<path d="M520 1762 c0 -6 -8 -13 -17 -15 -16 -4 -16 -5 -1 -6 18 -1 34 16 24
26 -3 4 -6 1 -6 -5z"/>
<path d="M992 1754 c-7 -8 -8 -14 -3 -14 10 0 25 19 20 25 -2 1 -10 -3 -17
-11z"/>
<path d="M2000 1762 c0 -7 -8 -12 -17 -12 -15 0 -16 -2 -3 -10 10 -6 17 -4 23
6 5 9 6 18 3 21 -3 4 -6 1 -6 -5z"/>
<path d="M1693 1710 c0 -30 2 -43 4 -27 2 15 2 39 0 55 -2 15 -4 2 -4 -28z"/>
<path d="M2458 1743 c7 -3 16 -2 19 1 4 3 -2 6 -13 5 -11 0 -14 -3 -6 -6z"/>
<path d="M3423 1735 c0 -8 4 -12 9 -9 4 3 8 9 8 15 0 5 -4 9 -8 9 -5 0 -9 -7
-9 -15z"/>
<path d="M659 1728 c-1 -7 -1 -21 0 -30 2 -11 -9 -21 -31 -27 -31 -10 -31 -11
-3 -6 17 3 53 8 82 11 43 6 52 10 56 30 6 31 2 34 -55 34 -31 0 -48 -4 -49
-12z"/>
<path d="M2138 1704 c-4 -32 -2 -35 16 -30 12 3 35 6 52 6 22 0 33 6 36 18 9
33 -2 42 -52 42 -47 0 -48 0 -52 -36z"/>
<path d="M3590 1711 c0 -16 -6 -32 -12 -35 -7 -4 2 -4 21 -1 18 3 47 5 63 5
26 0 29 3 26 28 -3 25 -7 27 -50 30 -47 3 -48 3 -48 -27z"/>
<path d="M818 1700 c-3 -18 0 -30 6 -30 6 0 11 14 11 30 1 17 -2 30 -6 30 -4
0 -9 -13 -11 -30z"/>
<path d="M2300 1710 c0 -11 5 -20 10 -20 6 0 10 9 10 20 0 11 -4 20 -10 20 -5
0 -10 -9 -10 -20z"/>
<path d="M3748 1700 c-3 -19 0 -30 7 -30 7 0 10 11 7 30 -2 17 -5 30 -7 30 -2
0 -5 -13 -7 -30z"/>
<path d="M2298 1673 c7 -3 16 -2 19 1 4 3 -2 6 -13 5 -11 0 -14 -3 -6 -6z"/>
<path d="M858 1663 c7 -3 16 -2 19 1 4 3 -2 6 -13 5 -11 0 -14 -3 -6 -6z"/>
<path d="M2088 1663 c6 -2 18 -2 25 0 6 3 1 5 -13 5 -14 0 -19 -2 -12 -5z"/>
<path d="M2338 1663 c7 -3 16 -2 19 1 4 3 -2 6 -13 5 -11 0 -14 -3 -6 -6z"/>
<path d="M3538 1663 c7 -3 16 -2 19 1 4 3 -2 6 -13 5 -11 0 -14 -3 -6 -6z"/>
<path d="M3788 1663 c7 -3 16 -2 19 1 4 3 -2 6 -13 5 -11 0 -14 -3 -6 -6z"/>
<path d="M500 1648 c0 -3 -12 -11 -27 -16 -20 -8 48 -11 240 -11 190 -1 267
-4 267 -12 0 -8 4 -8 13 -1 6 5 21 12 32 15 11 2 -101 6 -250 7 -191 1 -258 5
-231 11 55 13 55 17 1 15 -24 0 -45 -4 -45 -8z"/>
<path d="M898 1653 c7 -3 16 -2 19 1 4 3 -2 6 -13 5 -11 0 -14 -3 -6 -6z"/>
<path d="M2005 1650 c-97 -27 -87 -28 177 -29 171 -1 268 -5 271 -11 3 -6 4
-5 3 2 -2 10 -57 14 -237 17 -211 3 -230 4 -189 16 25 7 36 13 25 13 -11 0
-33 -4 -50 -8z"/>
<path d="M2388 1653 c7 -3 16 -2 19 1 4 3 -2 6 -13 5 -11 0 -14 -3 -6 -6z"/>
<path d="M3430 1646 c5 -5 26 -5 52 1 l43 10 -52 -1 c-31 -1 -48 -5 -43 -10z"/>
<path d="M318 1643 c6 -2 18 -2 25 0 6 3 1 5 -13 5 -14 0 -19 -2 -12 -5z"/>
<path d="M938 1643 c7 -3 16 -2 19 1 4 3 -2 6 -13 5 -11 0 -14 -3 -6 -6z"/>
<path d="M2430 1643 c8 -2 25 -9 36 -15 12 -5 30 -8 40 -5 14 3 11 5 -8 6 -15
0 -30 6 -33 11 -3 6 -16 10 -28 9 -14 0 -16 -2 -7 -6z"/>
<path d="M3878 1643 c6 -2 18 -2 25 0 6 3 1 5 -13 5 -14 0 -19 -2 -12 -5z"/>
<path d="M3388 1629 c-29 -8 516 -16 557 -8 l30 5 -27 6 c-16 3 -28 2 -28 -1
0 -3 -55 -5 -122 -4 -68 2 -182 4 -255 5 -73 2 -143 0 -155 -3z"/>
<path d="M432 1083 c-1 -298 -5 -543 -9 -545 -5 -1 -6 -56 -5 -120 l4 -118
323 0 323 0 4 117 c2 96 0 120 -12 130 -11 9 -95 12 -317 13 l-303 0 -3 533
-2 532 -3 -542z m556 -552 c10 -6 13 -34 10 -115 l-3 -106 -117 0 -118 0 0
109 c0 96 2 110 18 114 31 8 197 7 210 -2z"/>
<path d="M3352 1083 c-1 -298 -5 -543 -9 -545 -5 -1 -6 -56 -5 -120 l4 -118
324 0 324 0 0 94 c0 52 3 101 6 110 4 11 20 17 48 18 l41 1 -45 6 -45 6 -5
545 -5 545 -3 -532 -2 -533 -310 0 -310 0 -3 533 -2 532 -3 -542z m557 -552
c10 -6 14 -36 14 -112 l0 -104 -119 -3 -119 -3 3 103 c2 81 6 106 19 116 19
14 180 17 202 3z"/>
<path d="M1742 1585 c0 -16 2 -22 5 -12 2 9 2 23 0 30 -3 6 -5 -1 -5 -18z"/>
<path d="M1862 1585 c0 -16 2 -22 5 -12 2 9 2 23 0 30 -3 6 -5 -1 -5 -18z"/>
<path d="M1902 1078 c-2 -482 -4 -538 -18 -546 -15 -8 -15 -10 0 -15 13 -5 16
-24 16 -112 l0 -105 324 0 324 0 4 117 c2 96 0 120 -12 130 -11 9 -96 12 -322
13 l-308 0 -3 528 -2 527 -3 -537z m573 -548 c11 -5 16 -9 10 -9 -6 -1 -9 -42
-8 -106 l1 -105 -119 0 -119 0 0 99 c0 129 2 131 123 130 51 0 101 -4 112 -9z"/>
<path d="M3187 1597 c-3 -8 -1 -20 4 -28 6 -10 9 -7 9 14 0 29 -5 35 -13 14z"/>
<path d="M3312 1585 c0 -16 2 -22 5 -12 2 9 2 23 0 30 -3 6 -5 -1 -5 -18z"/>
<path d="M217 1589 c7 -7 15 -10 18 -7 3 3 -2 9 -12 12 -14 6 -15 5 -6 -5z"/>
<path d="M317 1587 c-3 -7 5 -13 19 -13 29 -2 30 2 5 15 -14 8 -20 7 -24 -2z"/>
<path d="M392 1580 c0 -14 2 -19 5 -12 2 6 2 18 0 25 -3 6 -5 1 -5 -13z"/>
<path d="M1783 1584 c0 -6 10 -11 22 -11 12 0 22 6 22 13 0 8 -10 13 -22 12
-12 -1 -22 -7 -22 -14z"/>
<path d="M3233 1584 c0 -6 10 -11 22 -11 12 0 22 5 22 12 0 7 -10 12 -22 11
-12 0 -22 -6 -22 -12z"/>
<path d="M255 1580 c3 -5 8 -10 11 -10 2 0 4 5 4 10 0 6 -5 10 -11 10 -5 0 -7
-4 -4 -10z"/>
<path d="M3120 1455 c-11 -13 -8 -15 16 -14 17 1 22 3 11 6 -9 2 -15 9 -12 14
10 15 -1 10 -15 -6z"/>
<path d="M4230 1455 c-11 -13 -10 -14 4 -9 9 3 16 10 16 15 0 13 -6 11 -20 -6z"/>
<path d="M191 1451 c-9 -6 -4 -10 18 -13 33 -5 42 6 15 16 -19 7 -16 8 -33 -3z"/>
<path d="M1669 1449 c-10 -6 -7 -9 14 -9 29 0 35 5 14 13 -8 3 -20 1 -28 -4z"/>
<path d="M1334 1442 c4 -7 3 -12 -2 -12 -6 0 -12 -7 -15 -14 -4 -10 -1 -13 8
-10 18 7 27 32 13 40 -7 4 -8 3 -4 -4z"/>
<path d="M4255 1436 c-5 -7 -16 -23 -24 -37 -13 -24 -13 -24 14 2 15 15 26 31
24 37 -3 6 -8 5 -14 -2z"/>
<path d="M1272 1405 c0 -16 2 -22 5 -12 2 9 2 23 0 30 -3 6 -5 -1 -5 -18z"/>
<path d="M2800 1419 c0 -5 5 -7 10 -4 6 3 10 8 10 11 0 2 -4 4 -10 4 -5 0 -10
-5 -10 -11z"/>
<path d="M1361 1404 c0 -11 3 -14 6 -6 3 7 2 16 -1 19 -3 4 -6 -2 -5 -13z"/>
<path d="M3073 1385 c0 -22 2 -30 4 -17 2 12 2 30 0 40 -3 9 -5 -1 -4 -23z"/>
<path d="M4191 1404 c0 -11 3 -14 6 -6 3 7 2 16 -1 19 -3 4 -6 -2 -5 -13z"/>
<path d="M192 1385 c1 -13 4 -22 7 -20 2 3 10 0 16 -5 9 -8 11 -4 8 14 -7 34
-33 43 -31 11z"/>
<path d="M1680 1400 c-13 -8 -13 -11 3 -27 16 -16 17 -16 17 10 0 30 0 30 -20
17z"/>
<path d="M3118 1376 c-1 -17 -1 -166 2 -331 l6 -300 2 277 c2 236 4 279 18
292 14 15 13 16 -6 16 -16 0 -20 4 -16 16 3 9 6 18 6 20 0 3 3 3 8 1 4 -3 7 5
7 17 0 34 -23 27 -27 -8z"/>
<path d="M1289 1373 c-13 -16 -12 -17 4 -4 9 7 17 15 17 17 0 8 -8 3 -21 -13z"/>
<path d="M4245 1360 c-16 -7 -17 -9 -3 -9 9 -1 20 4 23 9 7 11 7 11 -20 0z"/>
<path d="M1300 1350 c0 -5 7 -7 15 -4 8 4 15 8 15 10 0 2 -7 4 -15 4 -8 0 -15
-4 -15 -10z"/>
<path d="M2788 1353 c7 -3 16 -2 19 1 4 3 -2 6 -13 5 -11 0 -14 -3 -6 -6z"/>
<path d="M209 1331 c-21 -5 -24 -9 -15 -17 9 -8 17 -8 31 2 23 17 18 22 -16
15z"/>
<path d="M1660 1334 c0 -2 9 -13 19 -23 18 -18 19 -18 24 -1 3 13 -2 19 -19
23 -13 2 -24 3 -24 1z"/>
<path d="M1306 1317 c3 -10 9 -15 12 -12 3 3 0 11 -7 18 -10 9 -11 8 -5 -6z"/>
<path d="M2781 1284 c0 -11 3 -14 6 -6 3 7 2 16 -1 19 -3 4 -6 -2 -5 -13z"/>
<path d="M1694 1030 c0 -113 2 -159 3 -102 2 56 2 148 0 205 -1 56 -3 10 -3
-103z"/>
<path d="M4171 1114 c0 -11 3 -14 6 -6 3 7 2 16 -1 19 -3 4 -6 -2 -5 -13z"/>
<path d="M1409 830 c-19 -13 -8 -18 21 -10 19 4 21 7 9 12 -9 3 -22 2 -30 -2z"/>
<path d="M4095 826 c-18 -13 -18 -14 8 -9 15 3 24 9 21 14 -7 12 -7 12 -29 -5z"/>
<path d="M4335 830 c-4 -6 3 -10 14 -10 25 0 27 6 6 13 -8 4 -17 2 -20 -3z"/>
<path d="M1173 823 c9 -2 23 -2 30 0 6 3 -1 5 -18 5 -16 0 -22 -2 -12 -5z"/>
<path d="M2653 823 c9 -2 23 -2 30 0 6 3 -1 5 -18 5 -16 0 -22 -2 -12 -5z"/>
<path d="M2880 821 c0 -4 11 -6 25 -3 14 2 25 6 25 8 0 2 -11 4 -25 4 -14 0
-25 -4 -25 -9z"/>
<path d="M1243 765 c0 -22 2 -30 4 -17 2 12 2 30 0 40 -3 9 -5 -1 -4 -23z"/>
<path d="M1414 765 c0 -27 2 -30 13 -19 7 7 13 15 13 19 0 4 -6 12 -13 19 -11
11 -13 8 -13 -19z"/>
<path d="M2893 787 c4 -10 7 -23 7 -28 0 -5 5 -9 10 -9 15 0 12 20 -7 38 -16
16 -16 16 -10 -1z"/>
<path d="M4113 785 c-16 -18 -16 -23 2 -41 13 -13 14 -11 13 21 -1 19 -2 35
-2 35 -1 -1 -7 -7 -13 -15z"/>
<path d="M1181 771 c-8 -14 -7 -20 4 -25 11 -4 15 2 15 19 0 30 -6 32 -19 6z"/>
<path d="M4340 764 c0 -22 2 -25 15 -14 12 10 13 16 4 26 -16 20 -19 18 -19
-12z"/>
<path d="M2653 764 c0 -7 6 -15 14 -18 7 -3 13 1 13 8 0 8 -6 16 -13 19 -8 3
-14 -1 -14 -9z"/>
<path d="M1201 723 c-1 -7 -10 -13 -21 -13 -17 0 -19 -2 -8 -14 11 -12 15 -12
27 -1 7 7 11 19 8 27 -4 9 -6 10 -6 1z"/>
<path d="M1404 703 c3 -8 6 -17 6 -19 0 -2 5 -4 11 -4 5 0 8 4 4 9 -3 5 3 11
12 13 13 3 9 6 -10 10 -22 4 -27 2 -23 -9z"/>
<path d="M2880 710 c0 -13 33 -21 42 -12 6 6 -1 11 -16 14 -14 3 -26 2 -26 -2z"/>
<path d="M2640 706 c0 -10 28 -13 41 -5 10 6 7 9 -13 9 -16 0 -28 -2 -28 -4z"/>
<path d="M4100 690 c6 -11 14 -20 17 -20 3 0 3 3 0 7 -4 3 -2 12 4 20 9 10 7
13 -10 13 -19 0 -20 -3 -11 -20z"/>
<path d="M4338 703 c6 -2 18 -2 25 0 6 3 1 5 -13 5 -14 0 -19 -2 -12 -5z"/>
<path d="M1245 630 c-3 -5 -1 -10 4 -10 6 0 11 5 11 10 0 6 -2 10 -4 10 -3 0
-8 -4 -11 -10z"/>
<path d="M1320 630 c19 -5 38 -6 42 -2 4 4 -12 8 -35 9 l-42 1 35 -8z"/>
<path d="M2728 633 c7 -3 16 -2 19 1 4 3 -2 6 -13 5 -11 0 -14 -3 -6 -6z"/>
<path d="M2817 629 c7 -7 15 -10 18 -7 3 3 -2 9 -12 12 -14 6 -15 5 -6 -5z"/>
<path d="M4145 629 c5 -6 55 0 55 7 0 3 -13 3 -29 2 -16 -1 -28 -5 -26 -9z"/>
<path d="M4238 633 c7 -3 16 -2 19 1 4 3 -2 6 -13 5 -11 0 -14 -3 -6 -6z"/>
<path d="M202 570 c0 -14 2 -19 5 -12 2 6 2 18 0 25 -3 6 -5 1 -5 -13z"/>
<path d="M3123 575 c0 -8 4 -12 9 -9 5 3 6 10 3 15 -9 13 -12 11 -12 -6z"/>
<path d="M382 530 c0 -19 2 -27 5 -17 2 9 2 25 0 35 -3 9 -5 1 -5 -18z"/>
<path d="M1853 525 c0 -22 2 -30 4 -17 2 12 2 30 0 40 -3 9 -5 -1 -4 -23z"/>
<path d="M3184 546 c-3 -8 -4 -23 -2 -33 3 -11 6 -6 9 15 6 34 2 42 -7 18z"/>
<path d="M3301 544 c0 -11 3 -14 6 -6 3 7 2 16 -1 19 -3 4 -6 -2 -5 -13z"/>
<path d="M1732 525 c0 -16 2 -22 5 -12 2 9 2 23 0 30 -3 6 -5 -1 -5 -18z"/>
<path d="M211 524 c0 -11 3 -14 6 -6 3 7 2 16 -1 19 -3 4 -6 -2 -5 -13z"/>
<path d="M305 530 c3 -5 13 -10 21 -10 8 0 14 5 14 10 0 6 -9 10 -21 10 -11 0
-17 -4 -14 -10z"/>
<path d="M1780 535 c0 -2 9 -9 20 -15 16 -9 18 -8 14 5 -5 13 -34 22 -34 10z"/>
<path d="M3125 529 c-4 -6 -5 -12 -2 -15 2 -3 7 2 10 11 7 17 1 20 -8 4z"/>
<path d="M3227 528 c-3 -8 4 -13 18 -13 12 0 22 6 22 13 0 6 -8 12 -18 12 -9
0 -19 -6 -22 -12z"/>
<path d="M256 517 c3 -10 9 -15 12 -12 3 3 0 11 -7 18 -10 9 -11 8 -5 -6z"/>
<path d="M1123 523 c15 -2 39 -2 55 0 15 2 2 4 -28 4 -30 0 -43 -2 -27 -4z"/>
<path d="M2618 523 c12 -2 32 -2 45 0 12 2 2 4 -23 4 -25 0 -35 -2 -22 -4z"/>
<path d="M4113 523 c15 -2 39 -2 55 0 15 2 2 4 -28 4 -30 0 -43 -2 -27 -4z"/>
</g>
</svg>
