<?xml version="1.0" encoding="UTF-8"?>
<svg version="1.1" xmlns="http://www.w3.org/2000/svg" width="2250" height="1109">
<path d="M0 0 C77.55 0 155.1 0 235 0 C230.37674031 19.64885366 230.37674031 19.64885366 227.85627747 28.9520874 C227.57789001 29.98166187 227.57789001 29.98166187 227.29387856 31.03203583 C227.10150801 31.743339 226.90913746 32.45464218 226.7109375 33.1875 C226.29502061 34.73351645 225.87935413 36.27960028 225.46391296 37.82574463 C224.57227052 41.14225453 223.67901577 44.45832411 222.78445435 47.77404785 C221.33717787 53.13866077 219.89375252 58.50430551 218.45092773 63.87011719 C216.90793151 69.60786898 215.36473727 75.34556699 213.82035828 81.08294678 C208.43137934 101.10365333 203.0620888 121.12962465 197.69549561 141.15634155 C196.33381264 146.23776573 194.97177988 151.31909607 193.60963821 156.4003973 C187.88283607 177.76384939 182.16138245 199.12872274 176.44921875 220.49609375 C176.18500185 221.48438549 175.92078495 222.47267723 175.64856148 223.49091721 C173.12598915 232.92654953 170.60378566 242.3622799 168.08352375 251.79852962 C167.17067586 255.21599751 166.25738825 258.63334779 165.34401894 262.05067635 C164.93005062 263.59995072 164.5162781 265.14927743 164.10274315 266.69866753 C160.78068457 279.1452193 157.38964468 291.57130286 154 304 C370.48 304 586.96 304 810 304 C807.75014934 316.37417862 807.75014934 316.37417862 806.44140625 321.36303711 C806.1440004 322.50511627 805.84659454 323.64719543 805.54017639 324.82388306 C805.21754318 326.04602509 804.89490997 327.26816711 804.5625 328.52734375 C804.21112942 329.87078272 803.86014436 331.21432256 803.50950623 332.55795288 C802.74823188 335.47207971 801.98445002 338.38553339 801.21871948 341.29849243 C799.9645731 346.06987813 798.71632503 350.84279551 797.46899414 355.6159668 C796.10812119 360.82275882 794.74695493 366.02947287 793.38404846 371.23573303 C789.86696212 384.67207246 786.36496607 398.11229396 782.87109375 411.5546875 C782.61094231 412.55559229 782.35079086 413.55649708 782.08275604 414.58773232 C780.74598643 419.7311342 779.40946066 424.8745994 778.07305908 430.01809692 C775.57730542 439.6234353 773.08003045 449.22837821 770.58287811 458.83335304 C769.73696085 462.08711006 768.89108899 465.34087887 768.04522705 468.59465027 C764.47914483 482.3120588 760.91181179 496.02914157 757.34368134 509.74601746 C754.9372099 518.99728142 752.53102 528.24861862 750.125 537.5 C749.86008507 538.51862373 749.59517014 539.53724747 749.32222748 540.58673859 C740.68626415 573.79388928 732.06920282 607.00591646 723.46109772 640.22029877 C715.26297377 671.85241281 707.06471306 703.48448531 698.83912277 735.10947037 C698.26569604 737.31463932 697.69261662 739.51989822 697.11965942 741.72518921 C696.22921614 745.15230437 695.33779214 748.57916308 694.44565773 752.00583839 C693.99271431 753.74631219 693.54059122 755.48699942 693.08854675 757.22770691 C689.45581816 771.16895678 685.71224305 785.07908856 682 799 C604.45 799 526.9 799 447 799 C448.29261 792.53695001 449.64231192 786.23679948 451.35644531 779.89453125 C451.585241 779.03782963 451.81403669 778.18112801 452.04976559 777.29846573 C452.80622723 774.46900003 453.56715624 771.64075655 454.328125 768.8125 C454.87016977 766.7887079 455.41193654 764.76484132 455.95344543 762.74090576 C457.41138782 757.29486625 458.8732147 751.84987636 460.33577347 746.40507507 C461.87643438 740.66681885 463.41347462 734.92759291 464.95092773 729.18847656 C467.75566279 718.72091114 470.56347677 708.25417474 473.37290668 697.7878685 C475.94805206 688.19429942 478.52104227 678.60015351 481.09345627 669.00585175 C483.95506071 658.33326476 486.81759538 647.66092796 489.68261719 636.98925781 C489.90088732 636.17624081 490.11915745 635.3632238 490.34404182 634.52556992 C490.78835786 632.87058507 491.23267409 631.21560028 491.67699051 629.56061554 C495.80152675 614.19742125 499.92151938 598.8330147 504.03805351 583.46767426 C504.93092755 580.1349518 505.82386202 576.80224553 506.71681213 573.46954346 C509.32076358 563.75083361 511.9245334 554.03207534 514.52727604 544.31304169 C515.5984767 540.31343046 516.67008686 536.31392902 517.74179268 532.31445312 C518.23468215 530.47469811 518.72740167 528.63489755 519.21992302 526.79504395 C519.45019251 525.93487671 519.680462 525.07470947 519.91770935 524.18847656 C520.11585959 523.44807129 520.31400984 522.70766602 520.51816463 521.94482422 C523.64586455 510.28698849 526.82400506 498.64531476 530 487 C391.07 487 252.14 487 109 487 C95.635 536.995 95.635 536.995 82 588 C74.917361 614.43281541 67.83386365 640.86536879 60.74499512 667.29650879 C57.0499871 681.07567158 53.3625022 694.85683917 49.67715263 708.63858795 C47.88289484 715.34748559 46.08751961 722.05608428 44.29211521 728.76467514 C42.58453775 735.14561048 40.87873286 741.5270161 39.17428017 747.90878677 C38.11937503 751.85673675 37.06270168 755.80421192 36.00556183 759.75156403 C35.52050516 761.56418452 35.03616201 763.37699614 34.55263519 765.19002533 C33.88431346 767.69557565 33.21330983 770.20039457 32.54174805 772.70507812 C32.35738662 773.39883419 32.17302519 774.09259026 31.98307705 774.80736923 C29.80188121 782.91852959 27.37219545 790.93453548 25 799 C-52.22 799 -129.44 799 -209 799 C-208.29771076 792.67939688 -207.4139997 787.03032462 -205.78881836 780.96728516 C-205.56333313 780.10546379 -205.3378479 779.24364243 -205.10552979 778.35570526 C-204.35634896 775.49852904 -203.5981253 772.64383568 -202.83984375 769.7890625 C-202.30165978 767.74411255 -201.76404029 765.69901396 -201.22694397 763.65377808 C-199.77462852 758.12986427 -198.3144674 752.60805168 -196.85290527 747.08657837 C-195.30936039 741.24970838 -193.77324731 735.41088302 -192.23632812 729.57226562 C-189.40020237 718.80245138 -186.5579149 708.03427516 -183.71259117 697.26688766 C-180.74339455 686.03048938 -177.77944309 674.7927114 -174.81640625 663.5546875 C-173.84095498 659.85537332 -172.86544202 656.15607541 -171.88989258 652.45678711 C-171.65123191 651.55176547 -171.41257124 650.64674383 -171.16667843 649.71429729 C-169.71461692 644.20837772 -168.26172275 638.70267857 -166.80820751 633.1971426 C-158.9223743 603.32758392 -151.0786953 573.4470814 -143.25 543.5625 C-142.67107184 541.35257963 -142.09214321 539.14265938 -141.51321411 536.93273926 C-141.22782619 535.84333982 -140.94243826 534.75394039 -140.64840221 533.63152885 C-139.23051993 528.21917675 -137.81256444 522.80684382 -136.39453125 517.39453125 C-136.11821428 516.33988049 -135.84189732 515.28522972 -135.55720711 514.19861984 C-130.36413728 494.37885441 -125.15532615 474.56326071 -119.9375 454.75 C-118.34235051 448.69273398 -116.74724123 442.63545738 -115.15234375 436.578125 C-114.95122105 435.81428434 -114.75009834 435.05044369 -114.54288101 434.26345634 C-108.96642069 413.08326883 -103.40601363 391.89886328 -97.84407425 370.71485901 C-89.70628315 339.72013188 -81.56343777 308.72675504 -73.40434265 277.73762894 C-68.20559764 257.99219995 -63.01248236 238.24530577 -57.828125 218.49609375 C-57.56131613 217.47972839 -57.29450726 216.46336304 -57.01961327 215.41619873 C-55.92662072 211.25259149 -54.83364581 207.08897963 -53.74067974 202.92536545 C-38.18101811 143.65187174 -22.5921894 84.3859351 -6.89663696 25.14825439 C-6.34914622 23.08187894 -5.80191673 21.01543425 -5.25497437 18.94891357 C-4.53687695 16.23650697 -3.81752102 13.524438 -3.09765625 10.8125 C-2.89477997 10.04555817 -2.69190369 9.27861633 -2.48287964 8.48843384 C-1.72251252 5.62927513 -0.93587918 2.80763754 0 0 Z " fill="#FFFFFF" transform="translate(209,15)"/>
<path d="M0 0 C80.31974326 -0.0514219 160.6394885 -0.09911989 240.95924377 -0.12702942 C242.74256565 -0.12765068 242.74256565 -0.12765068 244.56191424 -0.12828448 C270.39991189 -0.13726334 296.23790971 -0.14557387 322.07590779 -0.15319599 C334.74697568 -0.15693798 347.41804351 -0.16082764 360.08911133 -0.16479492 C361.3500305 -0.1651872 362.61094967 -0.16557948 363.91007852 -0.16598364 C404.77528789 -0.17876619 445.64048482 -0.20129901 486.50568665 -0.22889166 C528.5022736 -0.25719672 570.49885367 -0.27565802 612.49545 -0.28174497 C618.42806371 -0.28260943 624.36067741 -0.28358634 630.29329109 -0.28463173 C631.46090706 -0.284834 632.62852302 -0.28503627 633.83152129 -0.28524467 C652.62196114 -0.28878891 671.41237968 -0.30270067 690.20281085 -0.3204961 C709.09652833 -0.33816786 727.99022471 -0.34490142 746.88395017 -0.34050413 C758.10708545 -0.33822356 769.33014341 -0.34429531 780.55326472 -0.36239263 C788.05598522 -0.37366343 795.55865524 -0.37397611 803.06137927 -0.36549544 C807.33269304 -0.36097762 811.60386087 -0.36111318 815.87515884 -0.37464955 C848.18010828 -0.47083795 878.01857494 2.19652449 902.09765625 26.0078125 C919.38114287 43.65498531 927.34641377 66.42480603 927.375 90.9375 C927.39949219 92.00806641 927.42398438 93.07863281 927.44921875 94.18164062 C927.52508482 115.84140259 919.89233912 137.3376066 914.30907822 158.08037567 C913.13814332 162.43600248 911.97444874 166.79356407 910.80981445 171.15087891 C908.60866137 179.3818112 906.4010475 187.61099552 904.19087505 195.83950996 C902.5413548 201.98147152 900.89467233 208.12418599 899.25048828 214.26757812 C899.02798118 215.09895892 898.80547407 215.93033972 898.57622433 216.78691387 C898.12925402 218.45706303 897.68229322 220.12721473 897.23534203 221.797369 C894.32187328 232.6836646 891.40574649 243.56923453 888.47875977 254.4519043 C888.25312945 255.29080924 888.02749914 256.12971418 887.79503155 256.99404049 C886.87475947 260.41539591 885.95442136 263.83673354 885.03388023 267.25801659 C882.00616925 278.51217557 878.99160563 289.76975577 875.99064541 301.03107834 C873.81513424 309.19436256 871.63367224 317.35604194 869.44831944 325.51669693 C868.13621185 330.41776255 866.8271987 335.31960547 865.52597046 340.22357178 C864.30804401 344.81339352 863.08154708 349.40084458 861.84897232 353.98675346 C861.40127857 355.65831265 860.9565685 357.33067482 860.51534653 359.00395393 C856.4732559 374.32081807 851.8381974 389.86304218 844.1875 403.8125 C843.55593994 404.98365356 843.55593994 404.98365356 842.91162109 406.1784668 C821.4380192 445.13976789 783.42008406 475.82066354 741 489 C724.95214564 493.36484971 709.5107053 495.15712672 692.90269947 495.12304783 C691.49824947 495.12378883 690.09379965 495.12496886 688.68935034 495.12654433 C684.84111697 495.12959799 680.99291023 495.12645107 677.14467885 495.12226619 C672.95401608 495.11881964 668.76335589 495.12120514 664.57269257 495.12284368 C657.23192656 495.12491423 649.89116866 495.12327909 642.55040359 495.11920547 C631.63499097 495.11316503 620.71958345 495.11287018 609.80416945 495.11374746 C591.44181019 495.11506079 573.07945454 495.11172213 554.71709633 495.10573006 C536.53667495 495.09981256 518.35625508 495.09596401 500.17583275 495.09487724 C499.04532991 495.0948085 497.91482708 495.09473976 496.75006658 495.09466894 C491.00878847 495.09433061 485.26751037 495.09402922 479.52623226 495.09374207 C438.86327166 495.09164179 398.20031302 495.08490479 357.53735352 495.07543945 C318.03442393 495.06625475 278.53149489 495.05917127 239.02856445 495.05493164 C237.81086162 495.05480011 236.59315878 495.05466859 235.33855586 495.05453308 C223.10985734 495.05321455 210.88115882 495.05193874 198.6524603 495.05069422 C173.74130387 495.04815802 148.83014747 495.04533677 123.91899109 495.04234314 C122.77362232 495.04220585 121.62825355 495.04206856 120.44817663 495.04192711 C43.96545027 495.03272681 -32.517275 495.01688165 -109 495 C-108.68396667 493.40288755 -108.36699592 491.80596057 -108.04963112 490.20911217 C-107.78501278 488.87514934 -107.78501278 488.87514934 -107.51504862 487.51423776 C-106.9063107 484.54265062 -106.19438085 481.6098916 -105.43115234 478.67431641 C-104.98961319 476.97041245 -104.98961319 476.97041245 -104.53915405 475.23208618 C-104.22459259 474.03401337 -103.91003113 472.83594055 -103.5859375 471.6015625 C-103.25260406 470.33138275 -102.91927063 469.061203 -102.57583618 467.75253296 C-101.87066695 465.07082976 -101.16235965 462.38997393 -100.45263672 459.70947266 C-99.73764214 457.0062475 -99.03013913 454.30124228 -98.32958984 451.59423828 C-86.17231278 404.64931577 -64.19899117 362.04777515 -23 334 C-22.31776367 333.53287598 -21.63552734 333.06575195 -20.93261719 332.58447266 C14.75844855 308.44789919 50.40724386 300.82003253 92.90536499 300.87974548 C95.22321129 300.87930891 97.54105754 300.87843242 99.85890353 300.87715632 C106.20075873 300.87492829 112.54259692 300.87890942 118.88444996 300.88393438 C125.02937436 300.88831251 131.17429896 300.88697293 137.31922445 300.88625254 C149.88106579 300.8849419 162.44290186 300.88826761 175.00474167 300.89426994 C187.43583579 300.90019452 199.8669277 300.90403741 212.29802322 300.90512276 C213.07202872 300.9051915 213.84603421 300.90526024 214.64349442 300.90533106 C218.5745541 300.90566941 222.50561379 300.90597079 226.43667348 300.90625793 C254.25335673 300.90835626 282.07003711 300.9150878 309.88671875 300.92456055 C336.9039712 300.93375041 363.92122286 300.94083136 390.93847656 300.94506836 C391.77181245 300.94519989 392.60514834 300.94533141 393.46373683 300.94546692 C401.83272271 300.94678549 410.20170859 300.94806129 418.57069447 300.94930578 C435.61806271 300.95184174 452.6654309 300.95466299 469.71279907 300.95765686 C470.49654532 300.95779415 471.28029157 300.95793144 472.0877877 300.95807289 C524.39185968 300.96726776 576.69593 300.98313313 629 301 C629.27363589 299.8320995 629.54727178 298.664199 629.82919967 297.46090758 C630.19229998 295.91372948 630.55542724 294.3665577 630.91857719 292.81939125 C631.0984427 292.05138933 631.2783082 291.2833874 631.46362418 290.4921127 C632.70893882 285.18981538 634.01758532 279.9111079 635.44189453 274.65380859 C635.6538446 273.8627774 635.86579468 273.07174622 636.08416748 272.25674438 C636.76454259 269.7199609 637.44859154 267.18418608 638.1328125 264.6484375 C638.61576421 262.85110132 639.09849698 261.0537063 639.58102417 259.2562561 C640.58286888 255.52636642 641.58637493 251.7969297 642.59130859 248.06787109 C643.87564411 243.30201919 645.15717634 238.53541947 646.4376545 233.76852989 C647.66852224 229.18660338 648.90054279 224.60498714 650.1328125 220.0234375 C650.36502628 219.15987011 650.59724007 218.29630272 650.83649063 217.40656662 C651.4960047 214.95495883 652.15631126 212.50356598 652.81689453 210.05224609 C653.00913605 209.33736023 653.20137756 208.62247437 653.39944458 207.88592529 C654.56116443 203.57914452 655.77088288 199.28796472 657 195 C655.12695828 195.00113916 655.12695828 195.00113916 653.21607733 195.00230134 C598.16842769 195.03564881 543.12077708 195.06650302 488.07312012 195.08468628 C486.82247194 195.08510045 486.82247194 195.08510045 485.54655815 195.08552299 C467.42535856 195.0915092 449.30415886 195.09704951 431.18295899 195.10213066 C422.29596352 195.10462527 413.40896808 195.10721839 404.52197266 195.10986328 C403.1954483 195.11025556 403.1954483 195.11025556 401.84212547 195.11065576 C373.19238472 195.11917416 344.54265188 195.13419357 315.89291593 195.15259444 C286.44465525 195.17147377 256.99639894 195.18377417 227.54813231 195.18782998 C223.38607684 195.18840627 219.22402139 195.18905754 215.06196594 195.18975449 C213.83327174 195.18995676 213.83327174 195.18995676 212.57975544 195.19016311 C199.40903318 195.19252395 186.23832447 195.20179305 173.06760773 195.21366407 C159.81751433 195.22545853 146.56743431 195.22993096 133.31733584 195.22700275 C125.45111848 195.22548488 117.58495022 195.22950769 109.71874174 195.24159509 C103.83468049 195.25001654 97.95065285 195.24790167 92.06658775 195.24179779 C89.69350453 195.24095526 87.32041712 195.24347045 84.9473421 195.24976636 C56.72887607 195.32025203 29.11603635 192.35153181 7 173 C6.34 172.48179687 5.68 171.96359375 5 171.4296875 C-11.19847025 158.33170569 -20.28383075 137.29005769 -23 117 C-23.31348402 112.51680079 -23.369977 108.05557482 -23.375 103.5625 C-23.39949219 102.44423828 -23.42398437 101.32597656 -23.44921875 100.17382812 C-23.52184616 78.59138142 -16.05750194 57.3360045 -10.43951416 36.68463135 C-9.59377913 33.56933307 -8.75462176 30.45227915 -7.91560841 27.33516502 C-7.10513259 24.32531422 -6.29222371 21.31612545 -5.47839928 18.3071785 C-5.09085914 16.87432254 -4.70372097 15.44135779 -4.31699562 14.00828171 C-3.78105367 12.024919 -3.24220299 10.0423714 -2.70239258 8.06005859 C-2.39690994 6.93457611 -2.09142731 5.80909363 -1.77668762 4.64950562 C-1 2 -1 2 0 0 Z " fill="#FFFFFF" transform="translate(1134,319)"/>
<path d="M0 0 C2.0458627 -0.00148231 4.09172492 -0.00384269 6.13758573 -0.006993 C11.73876808 -0.01309552 17.33987713 -0.00681056 22.94105399 0.00156327 C29.04235651 0.00846044 35.14365196 0.00368461 41.24495596 0.00040829 C51.93105806 -0.00373155 62.61713532 -0.00053046 73.30323315 0.00768471 C84.76298987 0.01645571 96.22273589 0.02082817 107.68249607 0.01988029 C108.40759356 0.01982291 109.13269104 0.01976553 109.87976118 0.0197064 C113.5773474 0.01939363 117.27493361 0.01900974 120.97251982 0.01860073 C147.70332334 0.0157892 174.43411734 0.02263535 201.16491795 0.03463554 C227.62990841 0.04648798 254.09489479 0.05418723 280.55988789 0.05634117 C281.38235747 0.05640999 282.20482706 0.05647882 283.05221996 0.05654973 C290.56441937 0.05717614 298.07661878 0.05775152 305.5888182 0.05826568 C324.26174147 0.05954433 342.93466465 0.06146288 361.60758781 0.06381607 C362.88295084 0.06397602 362.88295084 0.06397602 364.18407878 0.06413921 C405.52458095 0.06937988 446.86508044 0.08199403 488.20558071 0.09521675 C502.54829309 0.09980015 516.89100548 0.10435091 531.23371792 0.10876656 C532.12327708 0.10904045 533.01283623 0.10931435 533.92935173 0.10959655 C575.29732265 0.12228914 616.66529404 0.12973732 658.03326639 0.13583615 C660.71952921 0.13623227 663.40579203 0.13663066 666.09205484 0.1370295 C683.8943404 0.13966911 701.69662598 0.1422184 719.49891156 0.14470722 C754.9198121 0.14965998 790.34071255 0.15514334 825.76161295 0.16099132 C827.4483768 0.1612698 829.13514064 0.16154791 830.82190448 0.16182564 C906.73788382 0.17432879 982.6538612 0.19300374 1058.56983852 0.21435738 C1059.635913 0.21465718 1059.635913 0.21465718 1060.72352433 0.21496304 C1096.26726654 0.22496358 1131.81100865 0.23531654 1167.35475063 0.24609566 C1167.20429566 1.67976245 1167.05131827 3.11316466 1166.89728642 4.54645157 C1166.81236962 5.34470513 1166.72745282 6.1429587 1166.63996279 6.96540177 C1166.27977565 9.84563173 1165.63658394 12.58029055 1164.88355923 15.38232613 C1164.58589657 16.50154457 1164.28823391 17.62076302 1163.98155117 18.77389717 C1163.65869137 19.95839455 1163.33583157 21.14289192 1163.00318813 22.36328316 C1162.66606808 23.61505348 1162.32894802 24.86682381 1161.98161221 26.15652657 C1161.26817135 28.80187402 1160.54975658 31.44580754 1159.82789516 34.08886909 C1159.09955085 36.7572857 1158.3781527 39.42740646 1157.66383266 42.09961128 C1147.19137459 81.27336981 1147.19137459 81.27336981 1138.66725063 96.87109566 C1138.25064175 97.64485542 1137.83403286 98.41861519 1137.40479946 99.21582222 C1114.24941052 141.16120487 1073.90152808 174.12713033 1027.99049282 187.90527534 C1012.93147773 192.24911719 998.91538113 193.53730039 983.30912304 193.49219131 C981.2673824 193.49367208 979.22564225 193.49603083 977.18390352 193.49918431 C971.57085599 193.50531134 965.95788113 193.49898128 960.34483903 193.49062804 C954.2393659 193.48375144 948.13390004 193.48850281 942.02842546 193.49178302 C931.32724732 193.49592924 920.62609396 193.49271065 909.92492008 193.48450661 C898.44532503 193.47574461 886.96574065 193.47136211 875.48614216 193.47231102 C874.76057819 193.4723684 874.03501423 193.47242579 873.28746348 193.47248491 C869.58768884 193.47279767 865.88791422 193.47318157 862.18813959 193.47359058 C835.42143482 193.47640426 808.65473954 193.46954849 781.88803768 193.45755577 C755.38263051 193.44570851 728.87722739 193.43800512 702.37181759 193.43585014 C701.54848314 193.43578132 700.72514869 193.4357125 699.87686471 193.43564159 C692.35690785 193.43501518 684.83695098 193.4344398 677.31699412 193.43392564 C658.62371433 193.43264689 639.93043464 193.43072827 621.23715496 193.42837524 C620.3859299 193.42826861 619.53470484 193.42816197 618.65768508 193.42805211 C577.25641243 193.42280981 535.85514247 193.41019499 494.45387173 193.39697456 C480.08776254 193.39239122 465.72165333 193.38784048 451.35554409 193.38342476 C450.01905211 193.38301391 450.01905211 193.38301391 448.6555603 193.38259476 C407.23083894 193.3699052 365.80611712 193.36245497 324.38139433 193.35635517 C321.69187304 193.35595904 319.00235175 193.35556066 316.31283046 193.35516181 C298.4891434 193.35252223 280.66545633 193.34997294 262.84176924 193.34748409 C227.37744422 193.34253116 191.91311928 193.3370478 156.44879438 193.3312 C154.75991345 193.33092152 153.07103251 193.33064341 151.38215157 193.33036567 C75.35836816 193.31786046 -0.66541328 193.29918487 -76.68919468 193.27783394 C-77.40101035 193.27763407 -78.11282602 193.2774342 -78.84621186 193.27722827 C-114.44589114 193.26722747 -150.04557031 193.25687447 -185.64524937 193.24609566 C-185.33193438 191.49251825 -185.01707881 189.73921606 -184.70157814 187.98603058 C-184.52640917 187.009631 -184.3512402 186.03323142 -184.17076308 185.02724397 C-183.52526462 181.61110676 -182.70643918 178.26528455 -181.81688023 174.90478706 C-181.64572697 174.25416298 -181.47457371 173.60353889 -181.29823399 172.93319893 C-180.74054372 170.81998099 -180.17606548 168.70867205 -179.61009312 166.59765816 C-179.31526633 165.49368753 -179.31526633 165.49368753 -179.01448345 164.36741447 C-177.97178765 160.4644225 -176.92369854 156.56292647 -175.87107944 152.66259956 C-175.01538365 149.48857268 -174.16924741 146.31224936 -173.33201694 143.13330269 C-164.71850671 110.44913881 -154.11589964 81.80122104 -130.75462437 56.54687691 C-128.85489919 54.47476926 -127.06298556 52.34768435 -125.27024937 50.18359566 C-120.94595448 45.22014402 -115.79597507 41.31095408 -110.64524937 37.24609566 C-109.8292728 36.56418159 -109.01329624 35.88226753 -108.17259312 35.17968941 C-101.7345138 29.83032594 -94.88853592 25.42311849 -87.64524937 21.24609566 C-87.07177769 20.91077827 -86.49830601 20.57546089 -85.9074564 20.22998238 C-59.092027 4.68879905 -30.61808011 -0.08922102 0 0 Z " fill="#FFFFFF" transform="translate(987.6452493667603,14.753904342651367)"/>
<path d="M0 0 C13.34440712 11.32061078 20.77819552 27.30996365 22.22070312 44.65356445 C22.33919478 47.33544238 22.37951092 50.00302773 22.375 52.6875 C22.37367065 54.15159302 22.37367065 54.15159302 22.37231445 55.64526367 C22.13887691 70.52483309 19.26236319 84.79212269 15 99 C-31.2 99 -77.4 99 -125 99 C-124.03876334 113.41854992 -122.9502653 123.66676982 -112.375 133.5625 C-101.62353804 142.61214768 -87.86820294 146.01000918 -74 145 C-54.9766608 143.03883101 -38.28704571 135.01261818 -25 121 C-21.13671373 122.5847358 -18.71123077 125.05956887 -15.796875 128.0078125 C-15.3142218 128.49329559 -14.8315686 128.97877869 -14.33428955 129.47897339 C-12.80141438 131.02299866 -11.27565996 132.57384824 -9.75 134.125 C-8.70879639 135.17624009 -7.66713459 136.22702657 -6.625 137.27734375 C-4.07800536 139.84633004 -1.53734823 142.42148161 1 145 C-6.20763305 160.40998012 -29.65552336 171.49900224 -44.61328125 177.43359375 C-72.77178379 187.45409571 -104.65866437 187.5700475 -132 175 C-149.14816738 166.08732192 -160.30056471 152.2433071 -167.02734375 134.42578125 C-169.58351037 125.42273655 -170.36049781 116.71161763 -170.3125 107.375 C-170.30758545 106.23562988 -170.3026709 105.09625977 -170.29760742 103.92236328 C-169.83595666 70.43255947 -155.69378181 40.58996413 -132.8125 16.4375 C-118.80742835 2.86781918 -100.76360355 -6.94749852 -82 -12 C-80.83082031 -12.31839844 -79.66164063 -12.63679687 -78.45703125 -12.96484375 C-52.4093639 -18.92094893 -21.77358261 -16.47103585 0 0 Z M-105 42 C-110.94076422 49.19653552 -114.47569339 56.18923348 -118 65 C-86.32 65 -54.64 65 -22 65 C-19.28594547 55.50080913 -19.05173004 48.18789137 -23 39 C-28.75082049 29.18875171 -36.21422481 24.14516498 -47 21 C-68.63425228 15.59143693 -90.800134 25.92331802 -105 42 Z " fill="#FFFFFF" transform="translate(2220,908)"/>
<path d="M0 0 C1.15056838 1.12015688 2.27762534 2.26518268 3.375 3.4375 C3.92414063 4.00210938 4.47328125 4.56671875 5.0390625 5.1484375 C14.50394144 15.45256679 16.1533116 27.57722418 15.78662109 41.08178711 C15.48671221 47.56159657 14.30838564 53.67227157 12.8828125 59.98828125 C12.61941071 61.18505997 12.35600891 62.38183868 12.08462524 63.61488342 C8.42147145 80.02933989 4.27819831 96.33178006 0.18048096 112.6418457 C-5.30833423 134.49133762 -10.19532096 156.14458624 -13.625 178.4375 C-27.815 178.4375 -42.005 178.4375 -56.625 178.4375 C-56.625 173.10718988 -56.54780522 169.01292872 -55.625 163.9375 C-55.3465625 162.37515625 -55.3465625 162.37515625 -55.0625 160.78125 C-54.918125 160.0078125 -54.77375 159.234375 -54.625 158.4375 C-55.18445312 158.994375 -55.74390625 159.55125 -56.3203125 160.125 C-73.41642935 176.3965453 -95.1593802 183.10193041 -118.58984375 182.62890625 C-135.68729306 181.55068873 -151.59843793 177.72672975 -163.68359375 164.86328125 C-173.19652965 152.97689656 -173.80267524 139.06869556 -172.1953125 124.55859375 C-169.24207834 107.07617671 -160.34599969 94.00885636 -146.390625 83.37109375 C-113.72595336 60.53350553 -71.32023251 57.36094552 -32.625 58.4375 C-30.42985028 44.81351344 -30.42985028 44.81351344 -34.4375 32.015625 C-39.04358127 25.89438541 -45.69203175 24.26947405 -52.875 22.75 C-74.25773739 20.96810522 -93.32562499 26.25957377 -111.75415039 36.8972168 C-115.10177901 38.80000612 -116.65565643 39.4375 -120.625 39.4375 C-122.65252083 35.53084136 -124.66411358 31.61651554 -126.66137695 27.69433594 C-127.3429308 26.3613898 -128.02877838 25.03063 -128.71899414 23.70214844 C-129.71078009 21.79140746 -130.68682399 19.87331818 -131.66015625 17.953125 C-132.2519165 16.80102539 -132.84367676 15.64892578 -133.45336914 14.46191406 C-134.625 11.4375 -134.625 11.4375 -134.45678711 9.14868164 C-130.28705013 0.57055235 -112.10530049 -4.60763718 -103.625 -7.5625 C-71.42823964 -18.19333356 -28.10093885 -23.54116386 0 0 Z M-119.52734375 108.12890625 C-125.1023518 114.22188571 -127.25379418 120.50404811 -126.9609375 128.7265625 C-126.30469042 134.02232385 -124.66323911 137.63952483 -120.63671875 141.19140625 C-110.61100351 148.37736795 -99.37283719 148.70237561 -87.41015625 146.97265625 C-75.02766843 144.22280022 -65.48440884 138.39251397 -56.625 129.4375 C-56.07328125 128.91929687 -55.5215625 128.40109375 -54.953125 127.8671875 C-46.79268975 119.48738572 -39.625 104.11588023 -39.625 92.4375 C-82.07238113 90.83772303 -82.07238113 90.83772303 -119.52734375 108.12890625 Z " fill="#FFFFFF" transform="translate(1896.625,908.5625)"/>
<path d="M0 0 C0.82685303 0.00008057 1.65370605 0.00016113 2.50561523 0.00024414 C17.65591269 0.14045634 17.65591269 0.14045634 23.75 3.1875 C21.43804609 11.99543569 18.78253786 20.68661907 16.0625 29.375 C15.64239972 30.72194958 15.22247674 32.06895447 14.80273438 33.41601562 C13.78689022 36.67372274 12.76927642 39.93086548 11.75 43.1875 C10.86014404 43.04675049 9.97028809 42.90600098 9.0534668 42.76098633 C7.88468994 42.57818115 6.71591309 42.39537598 5.51171875 42.20703125 C4.35373779 42.02503174 3.19575684 41.84303223 2.00268555 41.65551758 C-8.47007287 40.1486289 -17.51866729 42.17918765 -26.15625 48.4140625 C-43.29399764 62.92999054 -46.47639116 91.89966243 -51.25 112.1875 C-37.06 112.5175 -22.87 112.8475 -8.25 113.1875 C-8.90379872 118.41788973 -9.57685698 122.99282856 -10.84375 128.0234375 C-11.15183594 129.25191406 -11.45992187 130.48039063 -11.77734375 131.74609375 C-12.09832031 133.00550781 -12.41929687 134.26492188 -12.75 135.5625 C-13.07459904 136.85797769 -13.39882075 138.15354998 -13.72265625 139.44921875 C-16.10939166 148.90628332 -16.10939166 148.90628332 -17.25 151.1875 C-31.44 151.5175 -45.63 151.8475 -60.25 152.1875 C-63.37225359 164.94187768 -66.49387444 177.69640822 -69.61392593 190.45132446 C-70.37122745 193.54707829 -71.12864999 196.64280248 -71.88607788 199.73852539 C-76.88097543 220.15535657 -81.8750424 240.57227984 -86.79296875 261.0078125 C-86.96006348 261.7018858 -87.1271582 262.39595909 -87.29931641 263.11106491 C-88.9711387 270.05637374 -90.63819078 277.00280791 -92.29931641 283.95068359 C-92.82062114 286.12337645 -93.34194164 288.29606552 -93.86328125 290.46875 C-94.09452194 291.44143829 -94.32576263 292.41412659 -94.56401062 293.41629028 C-94.77403214 294.29018402 -94.98405365 295.16407776 -95.20043945 296.06445312 C-95.38057083 296.81891724 -95.56070221 297.57338135 -95.74629211 298.35070801 C-96.25 300.1875 -96.25 300.1875 -97.25 302.1875 C-112.1 302.1875 -126.95 302.1875 -142.25 302.1875 C-141.12500374 292.0625337 -141.12500374 292.0625337 -140.06243896 287.69085693 C-139.70519997 286.20327377 -139.70519997 286.20327377 -139.34074402 284.68563843 C-139.0810231 283.62889923 -138.82130219 282.57216003 -138.55371094 281.48339844 C-138.27874283 280.34538788 -138.00377472 279.20737732 -137.72047424 278.03488159 C-136.8136814 274.28758702 -135.89905325 270.54225189 -134.984375 266.796875 C-134.34646703 264.16988979 -133.71026749 261.54249168 -133.07403564 258.9151001 C-131.56864651 252.70258501 -130.05767585 246.49144198 -128.544595 240.28079629 C-126.67482618 232.60499082 -124.8119028 224.92752723 -122.94921875 217.25 C-122.28913841 214.5294665 -121.62900752 211.80894527 -120.96881104 209.08843994 C-120.80807358 208.42607716 -120.64733613 207.76371438 -120.48172784 207.08127999 C-119.39348596 202.59773305 -118.30333786 198.11465251 -117.21234131 193.6317749 C-113.85324994 179.8258864 -110.52850566 166.0127655 -107.25 152.1875 C-124.575 151.6925 -124.575 151.6925 -142.25 151.1875 C-141.13625 146.216875 -140.0225 141.24625 -138.875 136.125 C-138.52775879 134.57031006 -138.18051758 133.01562012 -137.82275391 131.41381836 C-137.54351074 130.17253174 -137.26426758 128.93124512 -136.9765625 127.65234375 C-136.69377441 126.390271 -136.41098633 125.12819824 -136.11962891 123.82788086 C-135.26610025 120.25489776 -134.25919245 116.71967356 -133.25 113.1875 C-121.7 113.1875 -110.15 113.1875 -98.25 113.1875 C-97.734375 110.733125 -97.21875 108.27875 -96.6875 105.75 C-89.20279495 71.67716716 -78.96944318 33.75871397 -48.25 13.1875 C-33.4244175 4.06737807 -17.36701603 -0.01591196 0 0 Z " fill="#FFFFFF" transform="translate(2075.25,784.8125)"/>
<path d="M0 0 C1.37376627 1.16477029 2.72919972 2.35161851 4.0625 3.5625 C4.69800781 4.11808594 5.33351563 4.67367187 5.98828125 5.24609375 C10.52264951 9.4503367 13.29832295 14.07203092 16.0625 19.5625 C9.29549185 24.29472034 2.22940816 28.42364045 -4.98730469 32.42382812 C-6.83432358 33.44962032 -8.67498517 34.48625157 -10.515625 35.5234375 C-11.69494505 36.18034761 -12.87461957 36.83662183 -14.0546875 37.4921875 C-15.64192627 38.37753174 -15.64192627 38.37753174 -17.26123047 39.28076172 C-19.9375 40.5625 -19.9375 40.5625 -22.9375 40.5625 C-24.41015625 38.8046875 -24.41015625 38.8046875 -26 36.4375 C-31.09900124 29.62094044 -37.95898317 25.25117277 -46.40625 23.80859375 C-59.09763441 22.57470915 -72.56404527 22.97002668 -83.125 30.91015625 C-87.75612793 35.13206813 -89.16099584 38.8703732 -89.5 45.125 C-89.30777948 49.25774115 -88.81983696 52.28001239 -85.71801758 55.31347656 C-76.7690485 61.5911299 -65.11867747 64.31881949 -54.8515625 67.63671875 C-39.66203407 72.70525843 -23.32692113 80.15057907 -14.9375 94.5625 C-7.49666905 109.97052292 -8.54670383 126.70919288 -13.9375 142.5625 C-21.70584431 161.0742992 -36.89013954 172.81346518 -54.9375 180.5625 C-80.81836275 190.67424411 -113.10498518 190.87530948 -138.9375 180.5625 C-151.29704416 174.77496523 -166.097117 163.33833781 -171.9375 150.5625 C-170.73729827 146.9618948 -169.90849428 146.64581116 -166.73828125 144.7421875 C-165.86478027 144.21069092 -164.9912793 143.67919434 -164.09130859 143.1315918 C-162.68486084 142.29301636 -162.68486084 142.29301636 -161.25 141.4375 C-159.33130238 140.2759427 -157.41333565 139.11317725 -155.49609375 137.94921875 C-154.5510498 137.3773584 -153.60600586 136.80549805 -152.63232422 136.21630859 C-147.86135439 133.28837331 -143.20920141 130.18280898 -138.5546875 127.07421875 C-135.9375 125.5625 -135.9375 125.5625 -132.9375 125.5625 C-131.61328125 127.28515625 -131.61328125 127.28515625 -130.25 129.625 C-123.45844926 140.17675079 -114.09636498 144.88648905 -101.9375 147.5625 C-89.28833494 148.68649126 -77.77313777 147.76016309 -66.4375 141.6875 C-61.2570205 137.28409243 -58.10899531 133.35717278 -56.9375 126.5625 C-56.94690683 121.63332133 -57.72427294 117.39764198 -60.9375 113.5625 C-69.23537225 106.83685618 -80.25075203 103.43148987 -90.24755859 100.0546875 C-106.24772148 94.64515213 -124.22175147 88.45528549 -132.9765625 72.77734375 C-138.63527155 59.73470947 -138.11491264 45.95697967 -133.9375 32.5625 C-130.13877767 23.53410032 -124.86682886 16.41876037 -117.9375 9.5625 C-117.06931641 8.64404297 -117.06931641 8.64404297 -116.18359375 7.70703125 C-88.80639901 -19.05769828 -30.47985544 -22.88554802 0 0 Z " fill="#FFFFFF" transform="translate(1716.9375,906.4375)"/>
<path d="M0 0 C0.83265381 0.00523682 1.66530762 0.01047363 2.52319336 0.01586914 C3.42231445 0.0190918 4.32143555 0.02231445 5.24780273 0.02563477 C6.66609375 0.03820312 6.66609375 0.03820312 8.11303711 0.05102539 C9.06243164 0.05553711 10.01182617 0.06004883 10.98999023 0.06469727 C13.3435708 0.0765243 15.69701292 0.09384445 18.05053711 0.11352539 C17.40540421 8.99040286 15.17512911 17.46352473 13.05053711 26.07446289 C12.65034206 27.7134 12.25061009 29.35245025 11.85131836 30.99160767 C11.01746509 34.40987654 10.18002345 37.82723721 9.33959961 41.24389648 C8.26215462 45.6241845 7.19072807 50.00591485 6.12158203 54.38823509 C5.09977937 58.57577103 4.07539646 62.76267416 3.05053711 66.94946289 C2.85540527 67.74722515 2.66027344 68.54498741 2.45922852 69.36692429 C1.90773572 71.61923141 1.35445373 73.87109065 0.80053711 76.12280273 C0.48600586 77.40359711 0.17147461 78.68439148 -0.15258789 80.0039978 C-0.6795569 82.06031112 -1.27818644 84.09969603 -1.94946289 86.11352539 C32.04053711 86.11352539 66.03053711 86.11352539 101.05053711 86.11352539 C102.37053711 80.17352539 103.69053711 74.23352539 105.05053711 68.11352539 C106.31866895 62.81841339 107.59902257 57.5278678 108.90600586 52.24243164 C109.2567597 50.81806384 109.6073678 49.39366015 109.95783997 47.96922302 C110.68172096 45.0289712 111.40695482 42.08905789 112.13330078 39.14941406 C113.06356563 35.38421837 113.99085273 31.61829674 114.91723156 27.85214329 C115.63602273 24.93088857 116.35605617 22.00994124 117.07650185 19.08909416 C117.41930165 17.6989009 117.76178237 16.30862892 118.10393333 14.91827583 C118.57864434 12.99030007 119.05514836 11.06276606 119.53173828 9.13525391 C119.80169113 8.04148941 120.07164398 6.94772491 120.34977722 5.82081604 C120.84721144 3.8990465 121.42279202 1.99676066 122.05053711 0.11352539 C128.98053711 0.11352539 135.91053711 0.11352539 143.05053711 0.11352539 C139.97949214 15.15438031 136.46520379 30.05315342 132.80834961 44.96118164 C132.19713251 47.46301921 131.5862081 49.9649283 130.97555542 52.46690369 C129.5318499 58.37946267 128.08560447 64.29139449 126.63795173 70.20298809 C123.94239552 81.21096505 121.25293773 92.2204334 118.56322479 103.22983932 C117.62283832 107.07804354 116.68170307 110.92606414 115.74053955 114.77407837 C112.47663846 128.12636194 109.23260792 141.48311367 106.01831055 154.84741211 C105.68911985 156.2153915 105.35991856 157.58336835 105.03070641 158.95134258 C103.46585034 165.45523431 101.90418333 171.95986812 100.34695435 178.46559143 C99.79102857 180.7798131 99.23503284 183.09401797 98.67895508 185.40820312 C98.42594006 186.46976812 98.17292503 187.53133312 97.91224289 188.62506676 C97.56423567 190.07050834 97.56423567 190.07050834 97.209198 191.54515076 C97.00833021 192.38425712 96.80746243 193.22336348 96.60050774 194.0878973 C96.05053711 196.11352539 96.05053711 196.11352539 95.05053711 198.11352539 C88.12053711 198.11352539 81.19053711 198.11352539 74.05053711 198.11352539 C76.70825422 186.02774068 79.47833223 173.97899015 82.37866211 161.94946289 C82.73215411 160.47854906 83.08550658 159.00760168 83.4387207 157.53662109 C84.72431741 152.18685296 86.01257546 146.83772465 87.30053711 141.48852539 C90.18803711 129.48477539 93.07553711 117.48102539 96.05053711 105.11352539 C62.06053711 105.11352539 28.07053711 105.11352539 -6.94946289 105.11352539 C-7.60946289 108.74352539 -8.26946289 112.37352539 -8.94946289 116.11352539 C-9.57718544 118.94079905 -10.22062247 121.75369604 -10.90478516 124.56665039 C-11.08878876 125.33396988 -11.27279236 126.10128937 -11.46237183 126.89186096 C-12.0605834 129.38313727 -12.66312043 131.87334329 -13.26586914 134.36352539 C-13.68682914 136.11176118 -14.10755573 137.86005319 -14.52806091 139.60839844 C-15.40452332 143.24972371 -16.2829962 146.89055562 -17.16308594 150.53100586 C-18.29144736 155.19864459 -19.41592905 159.86720706 -20.53907871 164.53610229 C-21.40528366 168.13594752 -22.27289669 171.7354521 -23.14100456 175.33483887 C-23.55634695 177.05717939 -23.97139415 178.77959113 -24.38614082 180.5020752 C-24.96393088 182.90022872 -25.5434665 185.2979534 -26.12353516 187.69555664 C-26.29446182 188.40619766 -26.46538849 189.11683868 -26.64149475 189.84901428 C-27.3202843 192.64789876 -28.03812528 195.37951257 -28.94946289 198.11352539 C-35.87946289 198.11352539 -42.80946289 198.11352539 -49.94946289 198.11352539 C-48.70008056 190.96025898 -47.26670101 183.91463951 -45.52954102 176.86547852 C-45.2944816 175.90030996 -45.05942219 174.93514141 -44.81723976 173.94072533 C-44.04137024 170.75800814 -43.26101273 167.57640902 -42.48071289 164.39477539 C-41.92643133 162.12402942 -41.37247346 159.85320441 -40.81881714 157.58230591 C-39.64232994 152.75905248 -38.46400363 147.93625394 -37.28411865 143.11383057 C-34.51867924 131.81074684 -31.76122926 120.50571408 -29.00455856 109.20048904 C-28.38881075 106.67531204 -27.77294789 104.15016309 -27.15697098 101.62504196 C-23.13420239 85.13195534 -19.13860835 68.63273395 -15.19165039 52.12133789 C-14.97717003 51.22452553 -14.76268967 50.32771317 -14.5417099 49.40372467 C-12.56080206 41.11971057 -10.58396506 32.83474726 -8.61674309 24.547472 C-7.91971543 21.61384279 -7.22001797 18.68085488 -6.51968765 15.74801254 C-6.04968064 13.77503302 -5.58360107 11.80111917 -5.11764526 9.82717896 C-4.84348785 8.67982269 -4.56933044 7.53246643 -4.28686523 6.3503418 C-4.05075531 5.3549942 -3.81464539 4.35964661 -3.57138062 3.33413696 C-2.6813333 0.15614527 -2.6813333 0.15614527 0 0 Z " fill="#FFFFFF" transform="translate(1423.949462890625,888.886474609375)"/>
<path d="M0 0 C0.83265381 0.00523682 1.66530762 0.01047363 2.52319336 0.01586914 C3.42231445 0.0190918 4.32143555 0.02231445 5.24780273 0.02563477 C6.66609375 0.03820312 6.66609375 0.03820312 8.11303711 0.05102539 C9.06243164 0.05553711 10.01182617 0.06004883 10.98999023 0.06469727 C13.3435708 0.0765243 15.69701292 0.09384445 18.05053711 0.11352539 C17.51876248 5.95083729 16.63055314 11.52396247 15.19287109 17.20361328 C14.910193 18.35009795 14.910193 18.35009795 14.62180424 19.51974392 C14.01878055 21.95992455 13.40791248 24.39805823 12.79663086 26.83618164 C12.41984537 28.35586787 12.04358236 29.87568375 11.66784668 31.39562988 C10.28088929 36.99066363 8.88386942 42.58319912 7.48803711 48.17602539 C4.37366211 60.69540039 1.25928711 73.21477539 -1.94946289 86.11352539 C32.04053711 86.11352539 66.03053711 86.11352539 101.05053711 86.11352539 C102.37053711 80.17352539 103.69053711 74.23352539 105.05053711 68.11352539 C106.32152507 62.73472908 107.60249066 57.35938614 108.90600586 51.98852539 C109.25669458 50.53932536 109.6073042 49.09010618 109.95783997 47.64086914 C110.68184755 44.64937914 111.40712276 41.65820016 112.13330078 38.66723633 C113.06415783 34.83257169 113.99117082 30.99698869 114.91723156 27.16116333 C115.63527507 24.189159 116.35555494 21.21770015 117.07650185 18.24639893 C117.41974537 16.83036539 117.76222902 15.41414745 118.10393333 13.9977417 C118.57754827 12.03577476 119.05455757 10.07462813 119.53173828 8.11352539 C119.80169113 6.99977539 120.07164398 5.88602539 120.34977722 4.73852539 C121.05053711 2.11352539 121.05053711 2.11352539 122.05053711 0.11352539 C128.98053711 0.11352539 135.91053711 0.11352539 143.05053711 0.11352539 C140.21964989 13.03479279 137.20999938 25.89912116 134.07788086 38.75024414 C133.59675808 40.73033446 133.11581623 42.71046875 132.63504028 44.69064331 C131.61563351 48.88807662 130.59524709 53.0852699 129.57400513 57.28225708 C126.88282791 68.34230976 124.19701621 79.40366569 121.51147461 90.46508789 C121.24052286 91.5808552 120.96957111 92.69662251 120.69040871 93.84620094 C116.86415503 109.60457907 113.05904614 125.36789381 109.27709961 141.13696289 C108.94202613 142.53355479 108.94202613 142.53355479 108.60018349 143.95836067 C106.48697261 152.76633366 104.37568926 161.57475992 102.2709198 170.38475418 C101.51242894 173.55761443 100.75205072 176.73002025 99.99120712 179.90231705 C99.6413793 181.36299302 99.29244376 182.82388302 98.94446182 184.28499985 C98.47428954 186.25904742 98.00091213 188.2323308 97.52734375 190.20556641 C97.26442032 191.30594742 97.00149689 192.40632843 96.73060608 193.54005432 C96.05053711 196.11352539 96.05053711 196.11352539 95.05053711 198.11352539 C88.12053711 198.11352539 81.19053711 198.11352539 74.05053711 198.11352539 C76.61387846 185.70462292 79.35887918 173.37510106 82.37866211 161.07055664 C82.73228516 159.62054926 83.08563707 158.17047574 83.4387207 156.72033691 C84.72273965 151.45477204 86.01192389 146.19046781 87.30053711 140.92602539 C90.18803711 129.10790039 93.07553711 117.28977539 96.05053711 105.11352539 C62.06053711 105.11352539 28.07053711 105.11352539 -6.94946289 105.11352539 C-7.60946289 108.74352539 -8.26946289 112.37352539 -8.94946289 116.11352539 C-9.57718544 118.94079905 -10.22062247 121.75369604 -10.90478516 124.56665039 C-11.08878876 125.33396988 -11.27279236 126.10128937 -11.46237183 126.89186096 C-12.0605834 129.38313727 -12.66312043 131.87334329 -13.26586914 134.36352539 C-13.68682914 136.11176118 -14.10755573 137.86005319 -14.52806091 139.60839844 C-15.40452332 143.24972371 -16.2829962 146.89055562 -17.16308594 150.53100586 C-18.29144736 155.19864459 -19.41592905 159.86720706 -20.53907871 164.53610229 C-21.40528366 168.13594752 -22.27289669 171.7354521 -23.14100456 175.33483887 C-23.55634695 177.05717939 -23.97139415 178.77959113 -24.38614082 180.5020752 C-24.96393088 182.90022872 -25.5434665 185.2979534 -26.12353516 187.69555664 C-26.29446182 188.40619766 -26.46538849 189.11683868 -26.64149475 189.84901428 C-27.3202843 192.64789876 -28.03812528 195.37951257 -28.94946289 198.11352539 C-35.87946289 198.11352539 -42.80946289 198.11352539 -49.94946289 198.11352539 C-48.32908459 188.45240193 -46.06894605 178.98333307 -43.75024414 169.47290039 C-43.32213924 167.70670212 -42.8943214 165.94043424 -42.46676636 164.17410278 C-41.30977938 159.39769784 -40.1489734 154.62222879 -38.98736191 149.84694672 C-37.76807966 144.83228228 -36.55186286 139.81687458 -35.33544922 134.80151367 C-33.80506837 128.49223808 -32.27439844 122.1830334 -30.74229431 115.87417603 C-27.22132153 101.37327158 -23.71659221 86.86851121 -20.22133064 72.36138916 C-18.63191569 65.7659233 -17.04051541 59.17093616 -15.44917202 52.57593536 C-14.16460064 47.25158771 -12.88124925 41.92695167 -11.60049438 36.60168457 C-10.39611248 31.59429502 -9.18839679 26.58772135 -7.97812271 21.58175278 C-7.53244572 19.73563788 -7.08802799 17.88921848 -6.64492416 16.04248428 C-6.04161636 13.52874088 -5.43397601 11.01608474 -4.82519531 8.50366211 C-4.55975906 7.3907184 -4.55975906 7.3907184 -4.28896046 6.25529099 C-2.80415146 0.16329749 -2.80415146 0.16329749 0 0 Z " fill="#FFFFFF" transform="translate(641.949462890625,888.886474609375)"/>
<path d="M0 0 C0.83265381 0.00523682 1.66530762 0.01047363 2.52319336 0.01586914 C3.42231445 0.0190918 4.32143555 0.02231445 5.24780273 0.02563477 C6.66609375 0.03820312 6.66609375 0.03820312 8.11303711 0.05102539 C9.53712891 0.05779297 9.53712891 0.05779297 10.98999023 0.06469727 C13.3435708 0.0765243 15.69701292 0.09384445 18.05053711 0.11352539 C20.18537119 11.78744345 22.0360092 23.47647931 23.68603516 35.22802734 C23.93253818 36.96789926 24.17929056 38.70773586 24.42626953 40.44754028 C25.08787704 45.11362781 25.74584688 49.78022117 26.40294623 54.44694543 C27.09380997 59.34998986 27.78759598 64.25262096 28.48091125 69.15531921 C29.64204015 77.36952729 30.80073673 85.58407571 31.95800781 93.79882812 C33.29574413 103.29433694 34.6376161 112.78925461 35.98160332 122.28388053 C37.27786243 131.44214977 38.571009 140.60085599 39.86280251 149.75975609 C40.41158458 153.65016709 40.96149948 157.54041547 41.51233482 161.43053627 C42.15919194 165.99968208 42.80334068 170.56920161 43.44538116 175.13902664 C43.6814636 176.81616931 43.91849165 178.49317918 44.15652657 180.17004585 C44.48078725 182.45544496 44.8016438 184.74129675 45.12162781 187.02729797 C45.30208995 188.30678975 45.48255209 189.58628153 45.66848278 190.90454578 C46.05053711 194.11352539 46.05053711 194.11352539 46.05053711 198.11352539 C38.79053711 198.11352539 31.53053711 198.11352539 24.05053711 198.11352539 C23.05097809 191.35120264 22.05315809 184.58867125 21.05981445 177.82543945 C20.72132739 175.52450627 20.38181539 173.22372363 20.04125977 170.9230957 C19.55207417 167.6171709 19.06657096 164.31072316 18.58178711 161.00415039 C18.42867065 159.97485413 18.2755542 158.94555786 18.11779785 157.8850708 C17.97765259 156.92437683 17.83750732 155.96368286 17.69311523 154.97387695 C17.50658386 153.70812836 17.50658386 153.70812836 17.31628418 152.41680908 C17.05053711 150.11352539 17.05053711 150.11352539 17.05053711 146.11352539 C-15.94946289 146.11352539 -48.94946289 146.11352539 -82.94946289 146.11352539 C-83.60946289 147.76352539 -84.26946289 149.41352539 -84.94946289 151.11352539 C-86.34624915 153.20445493 -87.76561997 155.22222683 -89.26196289 157.23852539 C-92.85151576 162.16484053 -96.36408705 167.13266374 -99.78735352 172.17626953 C-100.89848452 173.80559104 -102.02099618 175.42720746 -103.15454102 177.04101562 C-105.7483734 180.74987961 -108.15428886 184.37414121 -110.15649414 188.43774414 C-114.1066766 195.96357051 -114.1066766 195.96357051 -117.94946289 198.11352539 C-125.82873021 199.76099594 -134.00737877 198.97658922 -141.94946289 198.11352539 C-140.03769705 194.1477027 -137.64059381 190.59925194 -135.13696289 186.98852539 C-134.65267822 186.28695313 -134.16839355 185.58538086 -133.66943359 184.86254883 C-129.52552556 178.88665978 -125.27333199 172.99211866 -120.99902344 167.10913086 C-116.92053003 161.48630703 -112.92033957 155.812759 -108.94946289 150.11352539 C-103.98517142 142.99016112 -98.94557307 135.92811994 -93.84399414 128.90258789 C-89.21426139 122.51288409 -84.69250883 116.05094635 -80.18212891 109.57666016 C-76.30763921 104.02532098 -72.36987343 98.52497115 -68.38696289 93.05102539 C-63.92357751 86.91403982 -59.58624969 80.70459561 -55.32446289 74.42602539 C-51.01619499 68.07980299 -46.60609492 61.8342077 -42.04052734 55.67089844 C-38.63578079 51.06940658 -35.30711019 46.4190839 -32.01196289 41.73852539 C-31.51374023 41.03083008 -31.01551758 40.32313477 -30.50219727 39.59399414 C-28.9835552 37.43458311 -27.46624951 35.27424004 -25.94946289 33.11352539 C-19.94992594 24.56697885 -13.9344934 16.03642592 -7.76196289 7.61352539 C-7.05704712 6.6513208 -7.05704712 6.6513208 -6.33789062 5.66967773 C-2.26173323 0.1317102 -2.26173323 0.1317102 0 0 Z M1.05053711 25.11352539 C0.00109097 26.4931777 -1.00089202 27.908926 -1.98461914 29.33618164 C-2.62117432 30.25584717 -3.25772949 31.1755127 -3.91357422 32.12304688 C-4.60604248 33.13052979 -5.29851074 34.1380127 -6.01196289 35.17602539 C-7.47539635 37.29328769 -8.93894116 39.41047302 -10.40258789 41.52758789 C-11.16369333 42.63075196 -11.92476089 43.73394217 -12.68579102 44.8371582 C-16.19660867 49.91860481 -19.73051527 54.98390669 -23.26196289 60.05102539 C-28.10690228 67.01130356 -32.93280146 73.98391366 -37.72802734 80.97851562 C-41.77522991 86.87539569 -45.86201688 92.74449436 -49.94946289 98.61352539 C-57.21062825 109.04327669 -57.21062825 109.04327669 -64.44946289 119.48852539 C-65.14362305 120.48722656 -65.14362305 120.48722656 -65.85180664 121.50610352 C-67.99511472 124.09194211 -67.99511472 124.09194211 -68.94946289 127.11352539 C-41.22946289 127.11352539 -13.50946289 127.11352539 15.05053711 127.11352539 C13.88723282 115.48048246 12.72881485 103.91848154 11.14682007 92.34539795 C10.97609545 91.09179096 10.97609545 91.09179096 10.80192184 89.81285858 C10.62721296 88.53082928 10.62721296 88.53082928 10.44897461 87.22290039 C10.20491295 85.41306498 9.96115497 83.6031886 9.71768188 81.79327393 C9.08613153 77.10448953 8.45055 72.41626083 7.81402588 67.72814941 C7.16118274 62.91423898 6.51229356 58.09979564 5.86303711 53.28540039 C4.59599733 43.89426005 3.32468346 34.503704 2.05053711 25.11352539 C1.72053711 25.11352539 1.39053711 25.11352539 1.05053711 25.11352539 Z " fill="#FFFFFF" transform="translate(1051.949462890625,888.886474609375)"/>
<path d="M0 0 C39.27 0 78.54 0 119 0 C118 8 118 8 115 19 C82.33 19 49.66 19 16 19 C15.67 21.97 15.34 24.94 15 28 C14.5783625 30.124653 14.11469229 32.24157663 13.60131836 34.34594727 C13.31720093 35.52241821 13.0330835 36.69888916 12.74035645 37.91101074 C12.44318726 39.11729126 12.14601807 40.32357178 11.83984375 41.56640625 C11.56563599 42.69751831 11.29142822 43.82863037 11.00891113 44.99401855 C9.99120052 49.18499667 8.96378686 53.37361378 7.9375 57.5625 C5.648125 66.946875 3.35875 76.33125 1 86 C31.69 86 62.38 86 94 86 C92 97 92 97 90 104 C58.98 104 27.96 104 -4 104 C-5.98 113.405 -5.98 113.405 -8 123 C-9.12303588 127.71205297 -10.26328254 132.41089736 -11.453125 137.10546875 C-11.72431152 138.1871936 -11.99549805 139.26891846 -12.27490234 140.38342285 C-13.26266619 144.31910501 -14.25666387 148.25322055 -15.25 152.1875 C-17.4775 161.035625 -19.705 169.88375 -22 179 C12.65 179 47.3 179 83 179 C81.84222435 185.36776605 80.56973 191.72107998 79 198 C37.42 198 -4.16 198 -47 198 C-46.34847554 192.13627983 -45.63409044 186.7862916 -44.23193359 181.13232422 C-44.05369206 180.39412949 -43.87545053 179.65593475 -43.69180775 178.89537048 C-43.09928008 176.44716504 -42.49885894 174.00096789 -41.8984375 171.5546875 C-41.46868583 169.78577525 -41.03944454 168.01673895 -40.610672 166.24758911 C-39.4475349 161.45424205 -38.27764721 156.66256564 -37.10656357 151.87115479 C-35.87864636 146.84215913 -34.65693183 141.81165765 -33.43481445 136.78125 C-31.89744128 130.45488916 -30.35939958 124.12869351 -28.81861877 117.80316162 C-25.01514687 102.18779666 -21.23110719 86.56780648 -17.45703125 70.9453125 C-16.9235632 68.73769661 -16.39007539 66.53008549 -15.85656738 64.32247925 C-13.78774654 55.761612 -11.71900263 47.20072629 -9.65130615 38.6395874 C-8.4449877 33.64546786 -7.23734237 28.65167088 -6.02872276 23.65810776 C-5.58382458 21.81898084 -5.1393899 19.97974172 -4.69544411 18.14038467 C-4.09006095 15.63236328 -3.48309902 13.12472918 -2.87573242 10.6171875 C-2.69877523 9.88241621 -2.52181805 9.14764492 -2.33949852 8.39060783 C-1.65002327 5.55015099 -0.92488867 2.77466601 0 0 Z " fill="#FFFFFF" transform="translate(829,889)"/>
<path d="M0 0 C1.11997848 0.00092179 2.23995695 0.00184359 3.39387417 0.00279331 C5.31436329 0.00073132 5.31436329 0.00073132 7.27365017 -0.00137234 C8.70568775 0.00216728 10.1377251 0.0058021 11.56976223 0.00952244 C13.06742762 0.0098043 14.56509314 0.00964659 16.06275845 0.00907993 C20.14109356 0.00879192 24.21939951 0.01468919 28.29772782 0.02165389 C32.55518812 0.02788687 36.81264902 0.02849118 41.07011318 0.0296793 C49.13784371 0.03279278 57.20556075 0.04100639 65.27328533 0.05102879 C74.45571963 0.06218941 83.63815456 0.06770025 92.82059395 0.07272422 C111.71477424 0.08318899 130.60894196 0.10078875 149.50311184 0.12304783 C148.86299103 6.90832836 147.35736407 12.324123 145.50311184 19.12304783 C123.72311184 19.12304783 101.94311184 19.12304783 79.50311184 19.12304783 C78.18311184 25.06304783 76.86311184 31.00304783 75.50311184 37.12304783 C74.67349538 40.65324352 73.83748268 44.17894982 72.97625637 47.70117283 C72.75407468 48.6162766 72.53189299 49.53138037 72.30297852 50.47421455 C71.58227302 53.44089531 70.85911225 56.40697134 70.13592434 59.37304783 C69.61849093 61.50109494 69.10122723 63.62918333 68.58412075 65.75730991 C67.49477563 70.2391524 66.40439887 74.72074199 65.31313992 79.20211887 C63.61827484 86.16239484 61.92575541 93.12323968 60.23382473 100.08422947 C59.95407079 101.23519013 59.67431684 102.3861508 59.38608551 103.57198906 C58.8234482 105.88681665 58.26082006 108.20164647 57.69820118 110.51647854 C56.8612209 113.95984174 56.02402218 117.40315177 55.18678188 120.84645176 C50.75368513 139.08022231 46.33883926 157.31833705 41.94061184 175.56054783 C41.64970669 176.76686863 41.35880154 177.97318943 41.05908108 179.21606541 C39.5394396 185.51815633 38.02103535 191.82054252 36.50311184 198.12304783 C29.57311184 198.12304783 22.64311184 198.12304783 15.50311184 198.12304783 C16.62810194 189.12312705 16.62810194 189.12312705 17.598876 185.15853977 C17.8170599 184.25795338 18.0352438 183.35736698 18.26003933 182.42949009 C18.49784115 181.46775379 18.73564297 180.50601749 18.9806509 179.51513767 C19.2330151 178.47904865 19.4853793 177.44295963 19.74539089 176.37547398 C20.58230934 172.94393735 21.42554801 169.51398609 22.26873684 166.08398533 C22.86434878 163.64655678 23.45953472 161.2090241 24.05432034 158.77139378 C25.46990295 152.97384942 26.88934204 147.17726318 28.31079936 141.38115752 C30.95416869 130.6017391 33.58777966 119.81993166 36.22276211 109.03846073 C37.14288587 105.27496596 38.06397768 101.51170903 38.9851675 97.74847507 C42.11291295 84.96318216 45.22005504 72.17324903 48.29022121 59.37402439 C48.59361794 58.1098374 48.89701466 56.84565041 49.20960522 55.54315472 C50.65790838 49.50568657 52.10291526 43.46745413 53.54321194 37.42807102 C54.05550547 35.28813454 54.56785182 33.1482107 55.08026028 31.00830173 C55.31259113 30.02927513 55.54492199 29.05024853 55.78429317 28.04155445 C55.9974744 27.15302155 56.21065563 26.26448864 56.4302969 25.34903049 C56.61453087 24.57627089 56.79876484 23.80351128 56.98858166 23.00733471 C57.50311184 21.12304783 57.50311184 21.12304783 58.50311184 19.12304783 C37.05311184 19.12304783 15.60311184 19.12304783 -6.49688816 19.12304783 C-5.36175303 8.90683161 -5.36175303 8.90683161 -4.49688816 5.12304783 C-4.33188816 4.38054783 -4.16688816 3.63804783 -3.99688816 2.87304783 C-3.21387099 0.13248773 -2.93382237 0.14458015 0 0 Z " fill="#FFFFFF" transform="translate(1252.4968881607056,888.8769521713257)"/>
<path d="M0 0 C6.93 0 13.86 0 21 0 C18.43319342 11.68736065 15.75361059 23.33244065 12.90234375 34.953125 C12.51104463 36.55414737 12.11992158 38.15521277 11.72895813 39.75631714 C10.89813153 43.15732587 10.06617882 46.55805618 9.23327637 49.95855713 C7.91831687 55.32722592 6.60589758 60.69651362 5.29394531 66.06591797 C3.92671473 71.66116848 2.55937096 77.25639107 1.19119263 82.85140991 C-3.80230366 103.27275106 -8.77636678 123.69881344 -13.75 144.125 C-16.4725 155.30375 -19.195 166.4825 -22 178 C8.03 178.33 38.06 178.66 69 179 C67 191 67 191 65 198 C27.71 198 -9.58 198 -48 198 C-43.40618392 177.32782766 -43.40618392 177.32782766 -41.64428711 170.12231445 C-41.33751368 168.85803918 -41.33751368 168.85803918 -41.02454281 167.568223 C-40.36041877 164.83284852 -39.69387556 162.09806992 -39.02734375 159.36328125 C-38.54622097 157.38319093 -38.06527912 155.40305664 -37.58450317 153.42288208 C-36.5650964 149.22544877 -35.54470999 145.02825549 -34.52346802 140.83126831 C-31.8322908 129.77121563 -29.1464791 118.7098597 -26.4609375 107.6484375 C-26.18998575 106.53267019 -25.919034 105.41690289 -25.6398716 104.26732445 C-21.81361792 88.50894632 -18.00850903 72.74563158 -14.2265625 56.9765625 C-14.00318018 56.04550123 -13.77979786 55.11443996 -13.54964638 54.15516472 C-11.4364355 45.34719173 -9.32515215 36.53876547 -7.22038269 27.72877121 C-6.46189183 24.55591096 -5.70151361 21.38350514 -4.94067001 18.21120834 C-4.59084219 16.75053237 -4.24190665 15.28964237 -3.89392471 13.82852554 C-3.42375243 11.85447797 -2.95037502 9.88119459 -2.47680664 7.90795898 C-2.21388321 6.80757797 -1.95095978 5.70719696 -1.68006897 4.57347107 C-1 2 -1 2 0 0 Z " fill="#FFFFFF" transform="translate(1169,889)"/>
</svg>
