<?xml version="1.0" standalone="no"?>
<!DOCTYPE svg PUBLIC "-//W3C//DTD SVG 20010904//EN"
 "http://www.w3.org/TR/2001/REC-SVG-20010904/DTD/svg10.dtd">
<svg version="1.0" xmlns="http://www.w3.org/2000/svg"
 width="280.000000pt" height="347.000000pt" viewBox="0 0 280.000000 347.000000"
 preserveAspectRatio="xMidYMid meet">

<g transform="translate(0.000000,347.000000) scale(0.100000,-0.100000)"
fill="#000000" stroke="none">
<path d="M2052 2063 c10 -2 15 -10 11 -19 -3 -8 -1 -14 5 -14 5 0 12 6 15 14
6 14 -14 27 -36 25 -7 -1 -4 -3 5 -6z"/>
<path d="M1785 2040 l-230 -5 228 -5 c126 -3 231 -1 234 3 3 5 3 9 2 10 -2 1
-107 0 -234 -3z"/>
<path d="M1413 2033 c15 -2 37 -2 50 0 12 2 0 4 -28 4 -27 0 -38 -2 -22 -4z"/>
<path d="M2506 2028 c3 -4 11 -5 19 -1 21 7 19 12 -4 10 -11 0 -18 -5 -15 -9z"/>
<path d="M2573 2033 c15 -2 37 -2 50 0 12 2 0 4 -28 4 -27 0 -38 -2 -22 -4z"/>
<path d="M2101 2014 c0 -11 3 -14 6 -6 3 7 2 16 -1 19 -3 4 -6 -2 -5 -13z"/>
<path d="M1315 1974 c0 -24 3 -44 7 -44 10 0 10 77 1 83 -5 3 -8 -15 -8 -39z"/>
<path d="M2040 1950 c0 -11 4 -20 9 -20 5 0 11 9 14 20 3 13 0 20 -9 20 -8 0
-14 -9 -14 -20z"/>
<path d="M338 1903 c12 -2 30 -2 40 0 9 3 -1 5 -23 4 -22 0 -30 -2 -17 -4z"/>
<path d="M2049 1848 c0 -29 -2 -70 -4 -90 -1 -21 1 -38 5 -38 5 0 9 41 9 90 0
50 -1 90 -4 90 -3 0 -5 -24 -6 -52z"/>
<path d="M1310 1881 c0 -6 5 -13 10 -16 6 -3 10 1 10 9 0 9 -4 16 -10 16 -5 0
-10 -4 -10 -9z"/>
<path d="M1115 1861 c-3 -5 -5 -48 -4 -95 l1 -86 38 0 c40 0 63 26 38 42 -10
6 -10 8 0 8 8 0 12 16 12 45 0 29 -4 45 -12 45 -9 0 -9 3 1 9 25 16 4 41 -33
41 -19 0 -37 -4 -41 -9z"/>
<path d="M1538 1843 c7 -3 16 -2 19 1 4 3 -2 6 -13 5 -11 0 -14 -3 -6 -6z"/>
<path d="M1603 1843 c15 -2 39 -2 55 0 15 2 2 4 -28 4 -30 0 -43 -2 -27 -4z"/>
<path d="M613 1804 c-15 -16 -16 -24 -4 -24 8 0 24 30 19 35 -2 2 -9 -3 -15
-11z"/>
<path d="M824 1812 c4 -7 2 -12 -3 -12 -6 0 -11 -4 -11 -10 0 -15 17 -12 23 5
4 8 1 17 -5 21 -7 4 -8 3 -4 -4z"/>
<path d="M1820 1810 c0 -5 5 -10 11 -10 5 0 7 5 4 10 -3 6 -8 10 -11 10 -2 0
-4 -4 -4 -10z"/>
<path d="M292 1770 c0 -19 2 -27 5 -17 2 9 2 25 0 35 -3 9 -5 1 -5 -18z"/>
<path d="M410 1773 c0 -18 2 -33 4 -33 9 0 13 39 5 51 -6 10 -9 4 -9 -18z"/>
<path d="M757 1787 c-3 -8 -1 -20 4 -28 6 -10 9 -7 9 14 0 29 -5 35 -13 14z"/>
<path d="M347 1783 c-12 -11 -8 -23 8 -23 8 0 15 7 15 15 0 16 -12 20 -23 8z"/>
<path d="M850 1774 c0 -8 5 -12 10 -9 6 4 8 11 5 16 -9 14 -15 11 -15 -7z"/>
<path d="M1824 1705 c0 -49 1 -71 3 -48 2 23 2 64 0 90 -2 26 -3 8 -3 -42z"/>
<path d="M646 1763 c-6 -14 -5 -15 5 -6 7 7 10 15 7 18 -3 3 -9 -2 -12 -12z"/>
<path d="M693 1773 c9 -2 25 -2 35 0 9 3 1 5 -18 5 -19 0 -27 -2 -17 -5z"/>
<path d="M1321 1717 c-1 -19 -8 -30 -23 -36 -21 -8 -21 -8 6 -15 16 -4 31 -5
34 -1 3 3 -3 5 -13 5 -14 0 -15 3 -5 14 6 8 10 25 7 38 -4 20 -4 20 -6 -5z"/>
<path d="M2112 1683 c-5 -10 -6 -29 -1 -43 6 -22 7 -21 8 12 1 34 4 37 34 41
l32 4 -32 1 c-22 1 -35 -4 -41 -15z"/>
<path d="M2040 1656 c0 -13 6 -23 14 -23 8 0 12 6 9 14 -3 7 1 13 8 13 16 0 3
13 -16 16 -10 1 -15 -6 -15 -20z"/>
<path d="M1028 1663 c7 -3 16 -2 19 1 4 3 -2 6 -13 5 -11 0 -14 -3 -6 -6z"/>
<path d="M965 1650 c-13 -5 -14 -9 -5 -9 8 0 24 4 35 9 13 5 14 9 5 9 -8 0
-24 -4 -35 -9z"/>
<path d="M1314 1641 c-5 -6 -31 -12 -59 -14 -27 -2 -9 -4 40 -4 50 0 79 2 65
4 -14 3 -28 9 -31 14 -3 5 -9 5 -15 0z"/>
<path d="M900 1628 c0 -4 60 -7 133 -7 72 1 125 3 117 5 -36 7 -250 10 -250 2z"/>
<path d="M1406 1631 c-3 -4 14 -8 37 -10 23 -1 39 1 36 4 -10 9 -68 14 -73 6z"/>
<path d="M862 1353 l-2 -273 -382 -3 -383 -2 382 -3 382 -2 1 -258 c0 -226 -2
-260 -17 -281 -9 -13 -11 -21 -4 -17 9 6 11 -18 9 -106 l-3 -113 325 3 c178 1
326 4 327 6 6 5 3 1309 -2 1315 -3 2 -5 -235 -5 -527 l0 -532 -310 0 -310 0
-3 533 c-1 292 -3 409 -5 260z m554 -821 c14 -8 24 -142 11 -142 -4 0 -6 -4
-3 -9 4 -5 0 -12 -6 -14 -7 -3 -5 -6 6 -6 11 -1 16 -4 13 -8 -4 -3 -1 -13 6
-21 9 -13 9 -14 0 -8 -7 4 -13 2 -13 -3 0 -7 -41 -11 -115 -11 l-115 0 0 25
c0 14 6 25 13 25 8 0 7 4 -3 10 -13 9 -13 10 0 10 13 1 13 2 0 10 -11 6 -16
22 -15 52 3 79 5 87 23 91 29 8 186 7 198 -1z m81 -158 c-3 -3 -12 -4 -19 -1
-8 3 -5 6 6 6 11 1 17 -2 13 -5z"/>
<path d="M1590 1605 c-7 -8 -8 -15 -2 -15 5 0 15 7 22 15 7 8 8 15 2 15 -5 0
-15 -7 -22 -15z"/>
<path d="M1825 1600 c-3 -5 1 -10 10 -10 9 0 13 5 10 10 -3 6 -8 10 -10 10 -2
0 -7 -4 -10 -10z"/>
<path d="M2038 1593 c6 -2 10 -9 7 -13 -3 -5 -2 -11 3 -14 4 -2 9 4 9 15 1 12
-4 19 -15 18 -11 0 -12 -2 -4 -6z"/>
<path d="M1531 1574 c0 -11 3 -14 6 -6 3 7 2 16 -1 19 -3 4 -6 -2 -5 -13z"/>
<path d="M1611 1546 c-9 -10 -8 -15 2 -19 8 -3 13 3 14 14 2 23 -1 24 -16 5z"/>
<path d="M1442 1530 c0 -14 2 -19 5 -12 2 6 2 18 0 25 -3 6 -5 1 -5 -13z"/>
<path d="M1820 1527 c0 -16 3 -17 15 -7 8 7 15 16 15 20 0 3 -7 7 -15 7 -8 0
-15 -9 -15 -20z"/>
<path d="M2053 1470 c0 -47 2 -66 4 -42 2 23 2 61 0 85 -2 23 -4 4 -4 -43z"/>
<path d="M1408 1483 c7 -3 16 -2 19 1 4 3 -2 6 -13 5 -11 0 -14 -3 -6 -6z"/>
<path d="M1822 1435 c-1 -21 3 -33 8 -30 6 4 8 10 5 15 -3 5 -1 19 5 30 8 16
8 20 -3 20 -9 0 -14 -13 -15 -35z"/>
<path d="M1615 1440 c-3 -5 -1 -10 4 -10 6 0 11 5 11 10 0 6 -2 10 -4 10 -3 0
-8 -4 -11 -10z"/>
<path d="M2485 1410 c-3 -5 -1 -10 4 -10 6 0 11 5 11 10 0 6 -2 10 -4 10 -3 0
-8 -4 -11 -10z"/>
<path d="M1613 1373 c1 -15 7 -18 36 -14 30 4 32 6 11 9 -14 2 -30 8 -37 14
-8 7 -11 4 -10 -9z"/>
<path d="M1823 1310 c0 -47 2 -66 4 -42 2 23 2 61 0 85 -2 23 -4 4 -4 -43z"/>
<path d="M1618 1270 c2 -22 5 -40 7 -40 2 0 5 18 7 40 2 24 -1 40 -7 40 -6 0
-9 -16 -7 -40z"/>
<path d="M2053 1230 c0 -47 2 -66 4 -42 2 23 2 61 0 85 -2 23 -4 4 -4 -43z"/>
<path d="M2226 1255 c-3 -9 0 -15 9 -15 9 0 12 6 9 15 -4 8 -7 15 -9 15 -2 0
-5 -7 -9 -15z"/>
<path d="M2494 1261 c4 -5 0 -11 -6 -13 -7 -3 0 -7 15 -10 27 -5 27 -5 11 13
-18 20 -29 25 -20 10z"/>
<path d="M2552 1200 c0 -14 2 -19 5 -12 2 6 2 18 0 25 -3 6 -5 1 -5 -13z"/>
<path d="M2237 1193 c-4 -3 -7 -11 -7 -17 0 -6 5 -5 12 2 6 6 9 14 7 17 -3 3
-9 2 -12 -2z"/>
<path d="M2490 1187 c0 -9 4 -18 9 -21 5 -4 8 1 7 9 -3 21 -16 31 -16 12z"/>
<path d="M1823 1110 c0 -25 2 -35 4 -22 2 12 2 32 0 45 -2 12 -4 2 -4 -23z"/>
<path d="M2484 1118 c9 -5 23 -5 32 0 12 6 7 9 -16 9 -23 0 -28 -3 -16 -9z"/>
<path d="M2053 1085 c0 -22 2 -30 4 -17 2 12 2 30 0 40 -3 9 -5 -1 -4 -23z"/>
<path d="M2230 1105 c0 -8 2 -15 4 -15 2 0 6 7 10 15 3 8 1 15 -4 15 -6 0 -10
-7 -10 -15z"/>
<path d="M1822 1026 c1 -20 5 -36 9 -36 7 0 1 61 -7 69 -2 2 -3 -13 -2 -33z"/>
<path d="M2230 1016 c0 -2 8 -10 18 -17 15 -13 16 -12 3 4 -13 16 -21 21 -21
13z"/>
<path d="M1928 993 c12 -2 32 -2 45 0 12 2 2 4 -23 4 -25 0 -35 -2 -22 -4z"/>
<path d="M2050 989 c0 -5 5 -7 10 -4 6 3 10 8 10 11 0 2 -4 4 -10 4 -5 0 -10
-5 -10 -11z"/>
<path d="M2138 993 c6 -2 18 -2 25 0 6 3 1 5 -13 5 -14 0 -19 -2 -12 -5z"/>
<path d="M2046 955 c-3 -8 -1 -15 4 -15 6 0 10 7 10 15 0 8 -2 15 -4 15 -2 0
-6 -7 -10 -15z"/>
<path d="M2045 875 c0 -30 3 -55 8 -55 4 0 7 25 7 55 0 30 -3 55 -7 55 -5 0
-8 -25 -8 -55z"/>
<path d="M2060 800 c-8 -5 -11 -12 -8 -16 4 -3 14 1 23 10 18 17 9 21 -15 6z"/>
<path d="M2091 774 c0 -11 3 -14 6 -6 3 7 2 16 -1 19 -3 4 -6 -2 -5 -13z"/>
<path d="M2048 598 c4 -217 8 -235 10 -45 1 97 -1 177 -5 177 -5 0 -7 -60 -5
-132z"/>
<path d="M598 673 c7 -3 16 -2 19 1 4 3 -2 6 -13 5 -11 0 -14 -3 -6 -6z"/>
<path d="M580 620 c-26 -6 -29 -8 -11 -9 14 0 32 -8 41 -16 16 -14 17 -14 13
10 -3 14 -6 24 -7 24 0 -1 -17 -5 -36 -9z"/>
<path d="M358 583 c6 -2 18 -2 25 0 6 3 1 5 -13 5 -14 0 -19 -2 -12 -5z"/>
<path d="M498 573 c12 -2 30 -2 40 0 9 3 -1 5 -23 4 -22 0 -30 -2 -17 -4z"/>
<path d="M588 548 c5 -5 16 -8 23 -6 8 3 3 7 -10 11 -17 4 -21 3 -13 -5z"/>
<path d="M292 520 c0 -19 2 -27 5 -17 2 9 2 25 0 35 -3 9 -5 1 -5 -18z"/>
<path d="M410 518 c0 -23 3 -29 9 -19 8 12 4 51 -5 51 -2 0 -4 -15 -4 -32z"/>
<path d="M335 520 c-4 -6 5 -10 20 -10 15 0 24 4 20 10 -3 6 -12 10 -20 10 -8
0 -17 -4 -20 -10z"/>
<path d="M620 519 c0 -5 5 -7 10 -4 6 3 10 8 10 11 0 2 -4 4 -10 4 -5 0 -10
-5 -10 -11z"/>
<path d="M597 476 c-4 -11 -1 -13 11 -10 10 4 13 3 6 -3 -6 -4 -13 -16 -17
-25 -4 -12 -2 -15 9 -11 11 4 14 -6 14 -51 0 -31 -4 -56 -10 -56 -5 0 -10 10
-11 23 0 21 -1 21 -10 2 -6 -14 -8 1 -6 50 l2 70 -33 1 c-27 1 -36 -4 -43 -22
-6 -17 -16 -24 -34 -24 -23 0 -25 -4 -27 -47 l-1 -48 -7 45 -7 45 -1 -47 -2
-48 81 0 c52 0 78 -4 74 -10 -4 -6 -10 -8 -15 -5 -5 3 -11 1 -15 -5 -4 -6 12
-10 42 -9 39 1 43 3 23 9 -17 5 -19 8 -7 9 18 1 20 11 17 76 -4 71 -6 85 -17
96 -7 7 -12 6 -16 -5z m-27 -81 c0 -12 -13 -15 -55 -15 -30 0 -55 4 -55 9 0
14 19 19 68 20 31 1 42 -3 42 -14z m-22 -52 c-15 -2 -42 -2 -60 0 -18 2 -6 4
27 4 33 0 48 -2 33 -4z"/>
<path d="M641 374 c0 -11 3 -14 6 -6 3 7 2 16 -1 19 -3 4 -6 -2 -5 -13z"/>
<path d="M1728 373 c28 -2 76 -2 105 0 28 2 5 3 -53 3 -58 0 -81 -1 -52 -3z"/>
<path d="M429 299 c-10 -6 -4 -9 19 -9 17 0 32 2 32 4 0 9 -39 13 -51 5z"/>
</g>
</svg>
